<?xml version="1.0" encoding="utf-8"?>
<!-- Generator: Adobe Illustrator 26.3.1, SVG Export Plug-In . SVG Version: 6.00 Build 0)  -->
<svg version="1.1" xmlns="http://www.w3.org/2000/svg" xmlns:xlink="http://www.w3.org/1999/xlink" x="0px" y="0px"
	 viewBox="0 0 600 600" style="enable-background:new 0 0 600 600;" xml:space="preserve">
<style type="text/css">
	.st0{display:none;}
	.st1{display:inline;opacity:0.5;}
	.st2{fill:#913C3C;}
	
		.st3{display:inline;fill:#C9E0FF;stroke:#FFFFFF;stroke-width:0.2835;stroke-linecap:round;stroke-linejoin:round;stroke-miterlimit:10;}
	.st4{opacity:0.67;}
	.st5{fill:#FFFFFF;stroke:#C9E0FF;stroke-width:0.5669;stroke-linecap:round;stroke-linejoin:round;stroke-miterlimit:10;}
	.st6{fill:#FFFFFF;}
	.st7{fill:none;stroke:#C9E0FF;stroke-width:0.5669;stroke-linecap:round;stroke-linejoin:round;stroke-miterlimit:10;}
</style>
<g id="Layer_2_00000154387717133346501800000014723183542959963292_" class="st0">
	<g class="st1">
		<path class="st2" d="M115.8,390.4c-0.9-0.3-1.4-1.3-1.1-2.2c0-0.1,0.1-0.3,0.2-0.4c0.9-1.4,1.4-3.1,1.4-4.8v-1
			c0-4.5-3.3-8.2-7.7-8.8c-0.1,0-1.3-0.1-1.3-0.1c-5.5-0.4-5.6-4.2-5.6-4.2l0,0c-1-12-9.4-14.9-9.4-14.9s-0.2,8-5.8,13.3
			s-12.6,5.6-16.5,6c-5.4,0.5-8.5,3.9-8.5,8.6v1c0,1.7,0.5,3.4,1.5,4.8c0.5,0.8,0.3,1.9-0.5,2.4c-0.1,0.1-0.2,0.1-0.4,0.2
			c-4.4,1.5-7.4,5.6-7.4,10.3l0,0c0,6,4.9,10.8,10.8,10.8c0,0,0,0,0,0h46.8c6,0,10.8-4.8,10.8-10.8c0,0,0,0,0,0l0,0
			C123.2,396,120.2,391.9,115.8,390.4z"/>
	</g>
	<g class="st1">
		<path class="st2" d="M321,253.2c0.2,0.9-0.5,1.9-1.4,2c-0.1,0-0.3,0-0.4,0c-1.7-0.1-3.4,0.3-4.9,1.1l-0.8,0.5
			c-3.8,2.2-5.5,6.9-3.9,11c0,0.1,0.6,1.1,0.6,1.1c2.4,5-0.9,7-0.9,7l0,0c-10,6.8-8.3,15.6-8.3,15.6s7-3.8,14.4-1.6
			s11.1,8.2,13.4,11.4c3.1,4.5,7.6,5.5,11.7,3.1l0.8-0.5c1.5-0.9,2.7-2.1,3.5-3.6c0.4-0.9,1.5-1.2,2.3-0.8c0.1,0.1,0.3,0.2,0.4,0.2
			c3.5,3.1,8.5,3.6,12.6,1.3l0,0c5.2-3,7-9.6,4.1-14.8c0,0,0,0,0,0L341,245.8c-3-5.2-9.6-7-14.8-4.1c0,0,0,0,0,0l0,0
			C322.2,244,320.1,248.7,321,253.2z"/>
	</g>
	<g class="st1">
		<path class="st2" d="M225,369.5c0-1,0.7-1.8,1.7-1.8c0.1,0,0.3,0,0.4,0c1.7,0.3,3.4,0.2,5-0.4l0.9-0.3c4.1-1.6,6.4-6.1,5.4-10.4
			c0-0.1-0.4-1.2-0.4-1.2c-1.7-5.3,1.8-6.8,1.8-6.8l0,0c10.8-5.3,10.4-14.2,10.4-14.2s-7.4,2.8-14.5-0.5s-9.9-9.7-11.7-13.2
			c-2.4-4.8-6.8-6.5-11.1-4.8l-0.9,0.3c-1.6,0.6-3,1.7-4,3.1c-0.6,0.8-1.7,1-2.4,0.4c-0.1-0.1-0.2-0.2-0.3-0.3
			c-3-3.6-7.9-4.8-12.3-3.1l0,0c-5.5,2.2-8.2,8.5-6,14l17.1,43.5c2.2,5.6,8.5,8.3,14.1,6.1l0,0C222.5,378.4,225.2,374.1,225,369.5z"
			/>
	</g>
	<g class="st1">
		<path class="st2" d="M466,479.3c-0.8,0.5-1.9,0.3-2.4-0.6c-0.1-0.1-0.1-0.3-0.2-0.4c-0.5-1.6-1.5-3.1-2.9-4.2l-0.7-0.6
			c-3.5-2.8-8.5-2.6-11.7,0.5c-0.1,0.1-0.9,0.9-0.9,0.9c-3.8,4.1-6.8,1.8-6.8,1.8l0,0c-9.9-6.8-17.5-2-17.5-2s6.1,5.1,6.8,12.8
			s-3.6,13.4-5.7,16.6c-3,4.5-2.3,9.1,1.4,12l0.7,0.6c1.3,1.1,3,1.7,4.7,1.9c1,0.1,1.7,0.9,1.6,1.9c0,0.1,0,0.3-0.1,0.4
			c-1.6,4.4-0.3,9.3,3.4,12.2l0,0c4.7,3.8,11.5,3,15.2-1.6c0,0,0,0,0,0l29.4-36.4c3.7-4.7,3-11.5-1.6-15.2l0,0
			C475,477.1,469.9,476.8,466,479.3z"/>
	</g>
	<g class="st1">
		<path class="st2" d="M111.9,248.2c-0.5-0.8-0.3-1.9,0.5-2.4c0.1-0.1,0.3-0.1,0.4-0.2c1.6-0.5,3.1-1.6,4.1-2.9l0.6-0.7
			c2.8-3.5,2.5-8.5-0.6-11.7c-0.1-0.1-0.9-0.9-0.9-0.9c-4.1-3.7-1.8-6.8-1.8-6.8l0,0c6.7-10,1.8-17.6,1.8-17.6s-5,6.2-12.8,6.9
			c-7.9,0.8-13.4-3.4-16.7-5.5c-4.6-2.9-9.1-2.2-12,1.5l-0.6,0.7c-1.1,1.4-1.7,3-1.9,4.7c-0.1,1-0.9,1.7-1.9,1.6
			c-0.1,0-0.3,0-0.4-0.1c-4.4-1.6-9.3-0.2-12.2,3.5l0,0c-3.7,4.7-2.9,11.5,1.8,15.2c0,0,0,0,0,0l36.7,29c4.7,3.7,11.5,2.9,15.2-1.8
			l0,0C114.2,257.2,114.4,252.1,111.9,248.2z"/>
	</g>
	<g class="st1">
		<path class="st2" d="M511.3,340.9c-0.5,0.9-1.5,1.2-2.4,0.7c-0.1-0.1-0.2-0.1-0.3-0.2c-1.3-1.2-2.9-1.9-4.6-2.2l-0.9-0.1
			c-4.4-0.7-8.6,2-9.9,6.3c-0.1,0.1-0.3,1.2-0.3,1.2c-1.2,5.4-5,4.9-5,4.9l0,0c-12-0.9-16.2,7.1-16.2,7.1s7.8,1.3,12.3,7.7
			s3.7,13.3,3.5,17.2c-0.3,5.4,2.6,9,7.2,9.7l0.9,0.1c1.7,0.3,3.4,0,5-0.7c0.9-0.4,1.9,0,2.3,0.9c0.1,0.1,0.1,0.3,0.1,0.4
			c0.8,4.6,4.4,8.1,9,8.9l0,0c5.9,0.9,11.5-3.2,12.4-9.1l7-46.2c0.9-5.9-3.2-11.5-9.1-12.4c0,0,0,0,0,0l0,0
			C518,334.5,513.5,336.8,511.3,340.9z"/>
	</g>
	<g class="st1">
		<path class="st2" d="M102.2,76.1c-0.7-0.7-0.7-1.8,0-2.5c0.1-0.1,0.2-0.2,0.3-0.3c1.5-0.9,2.6-2.2,3.3-3.8l0.4-0.8
			c1.9-4,0.5-8.8-3.3-11.2c-0.1-0.1-1.1-0.6-1.1-0.6c-4.9-2.7-3.3-6.2-3.3-6.2l0,0c4.2-11.3-2.2-17.5-2.2-17.5s-3.5,7.2-10.8,9.6
			S71.7,42.6,68,41.3c-5.1-1.8-9.4,0-11.4,4.2l-0.4,0.8c-0.7,1.6-1,3.3-0.8,5c0.1,0.9-0.5,1.8-1.5,2c-0.1,0-0.3,0-0.4,0
			c-4.6-0.5-9,2-11,6.2l0,0C40,65,42.3,71.4,47.8,74c0,0,0,0,0,0l42.4,19.8c5.4,2.5,11.9,0.2,14.4-5.2c0,0,0,0,0,0l0,0
			C106.5,84.3,105.6,79.3,102.2,76.1z"/>
	</g>
	<g class="st1">
		<path class="st2" d="M207.8,136.2c-0.2,0.9-1.2,1.5-2.1,1.2c-0.1,0-0.3-0.1-0.4-0.2c-1.5-0.8-3.2-1.2-4.9-1l-0.9,0.1
			c-4.4,0.4-7.9,3.9-8.2,8.4c0,0.1,0,1.3,0,1.3c0.1,5.6-3.7,5.9-3.7,5.9l0,0c-11.9,1.9-14.1,10.6-14.1,10.6s7.9-0.5,13.7,4.7
			s6.6,12.1,7.3,16c0.9,5.4,4.6,8.2,9.3,7.8l0.9-0.1c1.7-0.1,3.4-0.8,4.7-1.8c0.8-0.6,1.8-0.5,2.4,0.3c0.1,0.1,0.2,0.2,0.2,0.4
			c1.9,4.3,6.2,6.9,10.9,6.5l0,0c6-0.5,10.4-5.7,9.9-11.7l-3.8-46.6c-0.5-6-5.7-10.4-11.7-9.9c0,0,0,0,0,0l0,0
			C212.8,128.4,209,131.7,207.8,136.2z"/>
	</g>
	<g class="st1">
		<path class="st2" d="M345.9,87.1c-0.2-0.9,0.4-1.9,1.4-2.1c0.1,0,0.3,0,0.4,0c1.7,0.1,3.4-0.4,4.9-1.3l0.8-0.5
			c3.8-2.3,5.3-7.1,3.5-11.1c0-0.1-0.6-1.1-0.6-1.1c-2.6-4.9,0.7-7,0.7-7l0,0c9.8-7,7.9-15.8,7.9-15.8s-6.9,4-14.4,2
			s-11.4-7.9-13.7-11c-3.2-4.4-7.8-5.2-11.8-2.8l-0.8,0.5c-1.5,0.9-2.7,2.2-3.4,3.7c-0.4,0.9-1.4,1.2-2.3,0.8
			c-0.1-0.1-0.3-0.1-0.4-0.2c-3.6-3-8.6-3.4-12.6-1l0,0c-5.1,3.1-6.8,9.8-3.7,14.9c0,0,0,0,0,0l24.2,40c3.1,5.1,9.8,6.8,14.9,3.7
			l0,0C344.9,96.3,346.9,91.6,345.9,87.1z"/>
	</g>
	<g class="st1">
		<path class="st2" d="M563,231c-0.7,0.6-1.8,0.6-2.5-0.2c-0.1-0.1-0.2-0.2-0.2-0.4c-0.8-1.5-2-2.8-3.5-3.6l-0.8-0.5
			c-3.9-2.2-8.8-1.1-11.4,2.4c-0.1,0.1-0.7,1.1-0.7,1.1c-3,4.7-6.4,2.9-6.4,2.9l0,0c-10.9-5-17.6,1-17.6,1s6.9,4,8.8,11.5
			s-1.2,13.8-2.8,17.4c-2.2,5-0.7,9.3,3.4,11.6l0.8,0.5c1.5,0.8,3.2,1.2,4.9,1.1c1-0.1,1.8,0.6,1.9,1.6c0,0.1,0,0.3,0,0.4
			c-0.9,4.6,1.3,9.2,5.4,11.5l0,0c5.2,2.9,11.8,1.1,14.8-4.2l22.8-40.8c2.9-5.2,1.1-11.8-4.2-14.8c0,0,0,0,0,0l0,0
			C571.5,227.3,566.4,227.9,563,231z"/>
	</g>
	<g class="st1">
		<path class="st2" d="M408.6,206.2c0.8-0.5,1.9-0.3,2.4,0.5c0.1,0.1,0.1,0.2,0.2,0.4c0.6,1.6,1.6,3,3,4.1l0.7,0.6
			c3.5,2.7,8.5,2.4,11.7-0.8c0.1-0.1,0.8-0.9,0.8-0.9c3.6-4.2,6.7-1.9,6.7-1.9l0,0c10.1,6.5,17.6,1.5,17.6,1.5s-6.2-4.9-7.1-12.6
			s3.2-13.5,5.2-16.8c2.9-4.6,2-9.1-1.7-12l-0.7-0.6c-1.4-1-3-1.7-4.7-1.8c-1-0.1-1.7-0.9-1.6-1.9c0-0.1,0-0.3,0.1-0.4
			c1.5-4.4,0-9.3-3.7-12.1l0,0c-4.8-3.6-11.5-2.7-15.2,2c0,0,0,0,0,0l-28.4,37.2c-3.6,4.8-2.7,11.6,2,15.2l0,0
			C399.7,208.7,404.7,208.8,408.6,206.2z"/>
	</g>
	<g class="st1">
		<path class="st2" d="M459.9,78.4c0.4-0.9,1.5-1.2,2.3-0.8c0.1,0.1,0.2,0.1,0.4,0.2c1.3,1.1,2.9,1.8,4.6,2l0.9,0.1
			c4.4,0.6,8.6-2.2,9.7-6.6c0-0.1,0.2-1.2,0.2-1.2c1-5.4,4.8-5.1,4.8-5.1l0,0c12,0.5,16-7.5,16-7.5s-7.9-1.1-12.5-7.3
			s-4-13.2-3.9-17.1c0.2-5.4-2.8-8.9-7.5-9.5l-0.9-0.1c-1.7-0.2-3.4,0.1-5,0.8c-0.9,0.4-1.9,0.1-2.3-0.8c-0.1-0.1-0.1-0.3-0.1-0.4
			c-0.9-4.6-4.7-8-9.3-8.6l0,0c-5.9-0.7-11.4,3.5-12.1,9.4l-5.8,46.4c-0.7,5.9,3.5,11.4,9.4,12.1l0,0
			C453.4,85,457.9,82.6,459.9,78.4z"/>
	</g>
	<g class="st1">
		<path class="st2" d="M376.5,392c-0.9,0.3-1.9-0.3-2.2-1.2c0-0.1-0.1-0.3-0.1-0.4c-0.1-1.7-0.7-3.4-1.7-4.8l-0.5-0.8
			c-2.6-3.6-7.5-4.7-11.4-2.6c-0.1,0-1.1,0.7-1.1,0.7c-4.7,3-7-0.1-7-0.1l0,0c-7.8-9.2-16.4-6.6-16.4-6.6s4.5,6.5,3.1,14.2
			s-6.9,12-9.9,14.5c-4.1,3.6-4.6,8.2-1.9,12l0.5,0.8c1,1.4,2.4,2.5,4,3.1c0.9,0.3,1.4,1.3,1,2.2c-0.1,0.1-0.1,0.3-0.2,0.4
			c-2.7,3.8-2.7,8.9,0,12.6l0,0c3.5,4.9,10.3,6,15.1,2.5l38-27.3c4.9-3.5,6-10.3,2.5-15.1l0,0C385.7,392.3,380.9,390.6,376.5,392z"
			/>
	</g>
	<g class="st1">
		<path class="st2" d="M175.8,512.5c-0.2-0.9,0.3-1.9,1.3-2.1c0.1,0,0.3-0.1,0.4-0.1c1.7,0,3.4-0.5,4.8-1.5l0.8-0.5
			c3.7-2.4,5.1-7.3,3.1-11.3c-0.1-0.1-0.6-1.1-0.6-1.1c-2.8-4.8,0.4-7,0.4-7l0,0c9.5-7.4,7.3-16.1,7.3-16.1s-6.7,4.3-14.3,2.5
			s-11.6-7.5-14.1-10.5c-3.4-4.2-8-5-11.9-2.4l-0.8,0.5c-1.4,0.9-2.6,2.3-3.2,3.9c-0.4,0.9-1.4,1.3-2.3,0.9
			c-0.1-0.1-0.3-0.1-0.4-0.2c-3.7-2.9-8.8-3.1-12.6-0.5l0,0c-5,3.3-6.4,10-3.1,15l25.7,39.1c3.3,5,10,6.4,15,3.1l0,0
			C175.2,521.8,177,517,175.8,512.5z"/>
	</g>
	<g class="st1">
		<path class="st2" d="M537.6,549.3c0.6,0.8,0.4,1.9-0.4,2.4c-0.1,0.1-0.2,0.2-0.4,0.2c-1.6,0.7-3,1.8-3.9,3.2l-0.5,0.8
			c-2.5,3.7-2,8.6,1.3,11.6c0.1,0.1,1,0.8,1,0.8c4.4,3.4,2.2,6.6,2.2,6.6l0,0c-6,10.4-0.7,17.6-0.7,17.6s4.6-6.5,12.3-7.7
			s13.6,2.5,17,4.4c4.7,2.7,9.2,1.6,11.9-2.3l0.5-0.8c1-1.4,1.5-3.1,1.6-4.8c0-1,0.8-1.7,1.8-1.7c0.1,0,0.3,0,0.4,0.1
			c4.5,1.3,9.3-0.4,11.9-4.3l0,0c3.4-4.9,2.2-11.7-2.8-15.1c0,0,0,0,0,0l-38.5-26.5c-4.9-3.4-11.7-2.2-15.1,2.8c0,0,0,0,0,0l0,0
			C534.7,540.5,534.8,545.6,537.6,549.3z"/>
	</g>
	<g class="st1">
		<path class="st2" d="M267.2,582.6c0.2-0.9,1.1-1.6,2-1.4c0.1,0,0.3,0.1,0.4,0.1c1.6,0.7,3.3,1,5,0.7l0.9-0.1
			c4.4-0.6,7.6-4.4,7.6-8.9c0-0.1-0.1-1.3-0.1-1.3c-0.5-5.5,3.3-6.2,3.3-6.2l0,0c11.7-2.7,13.4-11.5,13.4-11.5s-7.9,1-14-3.8
			s-7.4-11.7-8.4-15.5c-1.3-5.3-5.1-7.9-9.8-7.2l-0.9,0.1c-1.7,0.2-3.3,1-4.6,2.1c-0.7,0.6-1.8,0.6-2.5-0.1
			c-0.1-0.1-0.2-0.2-0.2-0.3c-2.1-4.2-6.6-6.5-11.2-5.8l0,0c-5.9,0.8-10.1,6.3-9.2,12.3c0,0,0,0.1,0,0.1l6.8,46.3
			c0.9,5.9,6.4,10,12.3,9.2l0,0C262.7,590.8,266.4,587.2,267.2,582.6z"/>
	</g>
	<g class="st1">
		<path class="st2" d="M62.3,525.8c-0.8,0.6-1.9,0.4-2.4-0.3c-0.1-0.1-0.2-0.2-0.2-0.4c-0.7-1.6-1.8-2.9-3.2-3.9l-0.8-0.5
			c-3.7-2.5-8.7-1.8-11.6,1.5c-0.1,0.1-0.8,1-0.8,1c-3.3,4.4-6.6,2.4-6.6,2.4l0,0c-10.5-5.8-17.6-0.4-17.6-0.4s6.5,4.5,7.9,12.2
			s-2.3,13.6-4.1,17.1c-2.6,4.8-1.4,9.3,2.5,11.9l0.8,0.5c1.4,1,3.1,1.5,4.8,1.5c1,0,1.7,0.8,1.7,1.7c0,0.1,0,0.3-0.1,0.4
			c-1.2,4.5,0.6,9.3,4.5,11.8l0,0c5,3.3,11.7,2,15-3l25.9-39c3.3-5,2-11.7-3-15l0,0C71.1,522.8,66,523,62.3,525.8z"/>
	</g>
	<g class="st1">
		<path class="st2" d="M577.6,124c-0.9,0.3-1.9-0.1-2.2-1c-0.1-0.1-0.1-0.3-0.1-0.4c-0.2-1.7-0.9-3.3-2-4.6l-0.6-0.7
			c-2.9-3.5-7.9-4.2-11.7-1.8c-0.1,0.1-1,0.8-1,0.8c-4.5,3.3-7,0.5-7,0.5l0,0c-8.5-8.5-16.8-5.2-16.8-5.2s5,6.1,4.2,13.9
			s-6,12.5-8.7,15.3c-3.8,3.9-3.9,8.5-0.9,12.1l0.6,0.7c1.1,1.3,2.6,2.3,4.2,2.8c0.9,0.3,1.4,1.2,1.2,2.2c0,0.1-0.1,0.3-0.2,0.4
			c-2.4,4-2,9.1,1,12.6l0,0c3.9,4.6,10.7,5.1,15.3,1.2l35.6-30.3c4.6-3.9,5.2-10.7,1.3-15.3l0,0C586.9,123.5,581.9,122.3,577.6,124z
			"/>
	</g>
</g>
<g id="Layer_4" class="st0">
	<rect x="-19" y="-16.4" class="st3" width="635.2" height="627.7"/>
</g>
<g id="Layer_3" class="st4">
	<g>
		<path class="st5" d="M333.2,348.6c2.9,2.7,5.9,5.4,8.8,8.1c1.9,1.8,3.8,3.5,5.9,5.1c5.1,3.9,11.1,6.8,17.5,7.7
			c6.4,0.9,13.1-0.3,18.5-3.8c7-4.6,11.2-12.6,13-20.7c1.8-8.2,1.5-16.8-0.8-24.8c-0.8-2.9-1.9-5.7-3.5-8.2
			c-3.9-6.1-11-10.1-18.2-9.8c-7.2,0.3-14.2,4.9-16.8,11.7c-2.4,6-1.3,12.7-1.9,19.2c-0.3,2.6-1,5.4-3.1,6.8c-2,1.3-4.6,1-6.8,0.4
			c-4.5-1.4-8.6-4.2-13.2-4.9c-4.8-0.8-9.9,0.9-13.3,4.4c-3.4,3.4-5,8.6-4.2,13.3c0.1,0.8,0.4,1.7,1,2.3c0.6,0.6,1.6,0.9,2.3,0.5
			c1-0.6,0.9-2,1-3.1c0.2-3.1,2.7-5.7,5.6-6.5C328.3,345,330.5,346.2,333.2,348.6z"/>
		<path class="st5" d="M326.9,338.3c0.1-0.4,0.5-0.5,0.9-0.6c1.8-0.4,3.8-0.6,5.3,0.5"/>
		<path class="st5" d="M369.4,337.1c2.3-0.9,4.8,0.3,6.9,1.5c1.2,0.7,2.4,1.4,3.1,2.6c0.3,0.5,0.5,1.2,0.6,1.8
			c0.2,1.2,0.2,2.4,0,3.6c-0.2,1-0.8,2.1-1.8,2.3c-0.5,0.1-1-0.1-1.2-0.5c-0.1-0.2-0.1-0.4-0.1-0.7c0-0.8-0.3-1.5-0.7-2.2
			c-2.1,0.7-4.4,1-6.6,0.8c-0.6-0.1-1.2-0.2-1.6-0.6"/>
		<path class="st5" d="M397.7,335.7c0.8,0.3,1.5,0.6,2.3,1c0.5,0.2,1,0.4,1.4,0.8c0.4,0.4,0.7,0.8,0.9,1.3c0.8,1.3,1.5,2.7,1.8,4.2
			c0.3,1.5,0.1,3.2-1,4.3c-0.3,0.3-0.6,0.6-1.1,0.7c-0.8,0.1-1.6-0.6-1.8-1.4c-0.2-0.8-0.1-1.7,0.1-2.5c-1.2,1.1-3.1,1.4-4.6,0.9"/>
		<path class="st5" d="M382.3,360.2c2.6-0.7,4.9-2.7,5.8-5.3"/>
		<path class="st5" d="M379.8,329.6c0.3,0.7,0.7,1.4,1.4,1.6c0.6,0.2,1.2,0,1.6-0.4c0.4-0.4,0.7-1,0.7-1.6"/>
		<path class="st5" d="M375.1,318.3c-1.2-0.3-2.4,0.4-3.1,1.4c-0.7,1-1,2.2-1.1,3.5c-0.1,0.8-0.2,1.7-0.2,2.5
			c0.1,1.3,0.7,2.6,1.6,3.6c0.6,0.6,1.3,1.1,2.1,0.9c0.3-0.1,0.6-0.2,0.8-0.4c0.7-0.4,1.4-0.9,1.8-1.5
			C378.4,326,378.6,319.1,375.1,318.3z"/>
		<path class="st5" d="M384.8,326.6c0.5,0.9,1.4,1.6,2.4,1.7c1.1,0.1,2.1-0.8,2.6-1.8c0.5-1,0.5-2.1,0.4-3.2c-0.1-2.2-1.8-6.6-4.8-5
			C382.8,319.6,383.6,324.7,384.8,326.6z"/>
		<path class="st5" d="M362.7,310.9c0.1-0.2,0.3-0.3,0.4-0.5c1.2-1.5,2.6-3.1,4.5-3.6"/>
	</g>
	<g>
		<path class="st5" d="M544.2,75.1c-0.3,1.2-0.4,2.5-0.2,3.8c-0.7-0.3-1.5-0.4-2.3-0.3c0.2-1.1,0.2-2.3,0.1-3.5"/>
		<path class="st5" d="M527.5,82.6c1.2,2.5,2.8,5.2,5.4,6c1,0.3,2.1,0.3,3.2,0.3c5.3-0.1,10.6-0.3,15.9-0.4c1.6,0,3.2-0.1,4.7-0.3
			c0.5-0.1,0.9-0.2,1.3-0.5c0.3-0.3,0.5-0.7,0.7-1.1c0.7-1.5,1.3-2.9,2-4.4c1.9,0.4,4-0.6,5.8-1.6c1.7-0.9,3.3-1.9,4.7-3.2
			c2.7-2.6,3.8-6.4,4.3-10.2c0.3-2.3,0.4-4.6,0.1-6.8c-0.3-2-0.8-3.9-1.4-5.8c-1.7-5.4-4-10.8-8.2-14.5c-2.1-1.9-4.6-3.2-7-4.6
			c-1.8-1-3.6-1.9-5.6-2.1c-1.1-0.1-2.2,0.1-3.3,0c-2.1-0.1-4.1-1-6.2-1.4c-2.6-0.4-5.1,0.2-7.6,0.8c-3.2,0.7-6.4,1.5-9.2,3
			c-3,1.6-5.4,4-7.7,6.5c-1.3,1.4-2.5,3-3.3,4.7c-0.9,1.8-1.5,3.7-1.9,5.7c-1.5,6-2.5,12.6-0.3,18.4
			C515.9,77.1,521.3,81.5,527.5,82.6z"/>
		<polygon class="st5" points="529.6,75.4 530.3,76.1 530.9,77.4 531,79.2 530.9,79.7 533.1,81.3 535.6,82.9 538.2,84 540.7,84.7 
			544.1,85.1 546,85.1 551,84.3 552.8,83.7 555.2,82.4 555.8,81.7 555,81 554.4,79.8 554.5,78.8 555.7,77.4 554.1,77 552.5,76.4 
			549.3,75.9 539.9,74.9 534.5,75 		"/>
		<path class="st5" d="M532,75.1c0.6,0.3,0.7,1.8,0.9,2.4c0,0.1,0.1,0.3,0.2,0.4c0.1,0.1,0.3,0.1,0.5,0.1c0.5-0.1,1.1-0.2,1.6-0.3
			c0-0.4-0.1-0.8-0.3-1.1c-0.3-0.6-0.2-0.9-0.5-1.5"/>
		<polygon class="st5" points="551.1,76.3 547.5,75.7 546.8,78.4 546.2,81.8 545.8,84.3 546,85.3 546.6,86.3 547.5,86.9 548.4,87.5 
			549.3,87.6 550,87 550.9,85.2 551.3,83.3 551.5,80.2 		"/>
		<path class="st5" d="M549.3,75.9c-0.1,1.3-0.1,2.6-0.3,3.9"/>
		<g>
			<path class="st5" d="M546,85.1c0.1,0.2,0.1,0.4,0.2,0.6c0.3,0.6,1,1,1.6,1.4c0.5,0.3,1,0.6,1.5,0.4c0.5-0.1,0.8-0.6,1-1.1
				c0.3-0.7,0.6-1.5,0.8-2.2"/>
			<path class="st5" d="M551.2,76.8c0-0.2,0-0.3-0.1-0.5l-3.6-0.6c-0.1,0.3-0.1,0.5-0.2,0.8"/>
			<path class="st5" d="M551.2,76.8c0.3,2.5,0.4,5.1-0.1,7.5c0.4-0.1,0.9-0.3,1.3-0.4c1.3-0.5,2.6-1.1,3.5-2.2
				c-0.8-0.4-1.4-1.4-1.4-2.4c0-0.9,0.8-1.6,1.6-2"/>
			<path class="st5" d="M529.6,75.4c0.7,0.4,1.1,1.1,1.3,1.9c0.2,0.8,0.1,1.6,0,2.4c1.5,0.8,1.8,1.4,3.2,2.3
				c3.5,2.2,7.7,3.3,11.8,3.1c-0.2-0.7-0.1-1.4,0-2.1c0.3-2.2,0.8-4.3,1.3-6.5"/>
		</g>
		<path class="st5" d="M529.3,75.4c4.7-0.6,9.6-0.7,14.3-0.2c2,0.2,4,0.5,5.9,0.8c1.2,0.2,2.4,0.3,3.6,0.7c0.6,0.2,1.2,0.5,1.9,0.6
			c1.8,0.4,3.9-0.2,5.2,1"/>
		<path class="st5" d="M542,67.8c-0.4,0.5-0.8,0.9-1.2,1.5c-0.3,0.5-0.5,1.2-0.2,1.8c0.9,0,1.9,0.1,2.8,0.1c0.1,0,0.2,0,0.3-0.1
			c0.1-0.1,0.1-0.1,0.1-0.2c0.1-0.6,0.3-1.2,0.4-1.8C544.6,67.2,543.3,65.9,542,67.8z"/>
		<path class="st5" d="M545.7,70.5c0.1,0.3,0.2,0.6,0.4,0.8c0.2,0.2,0.5,0.3,0.9,0.4c0.6,0.1,1.2,0,1.5-0.5c0.2-0.3,0.2-0.8,0.1-1.2
			c-0.1-0.8-1-3-2-3C545.5,66.9,545.5,69.7,545.7,70.5z"/>
		<path class="st5" d="M550.6,50.7c0.9-1.5,2.2-2.8,3.5-4c2.7-2.7,5.5-5.5,9.2-6.6"/>
		<path class="st5" d="M560.9,39.8c0.9,0.8,1.6,1.8,2.1,2.8"/>
		<path class="st5" d="M559,41.1c0.6,0.6,1,1.4,1.2,2.2"/>
		<path class="st5" d="M556.5,42.9c0.6,0.7,1.1,1.4,1.4,2.3"/>
		<path class="st5" d="M553.7,45.3c0.5,0.6,0.9,1.3,1.2,2.1"/>
		<path class="st5" d="M551.4,47.7c0.8,0.6,1.5,1.4,2,2.2"/>
		<path class="st5" d="M520.2,55.2c1.1-1.3,2.9-1.6,4.6-1.8c1.1-0.1,2.1-0.2,3.2,0c2.3,0.5,4,2.4,5,4.5c0.6,1.3,1,2.7,0.9,4.1
			c-0.1,2.2-1.5,4.3-3.3,5.5c-1.9,1.2-4.2,1.6-6.4,1.3c-1.4-0.2-2.8-0.7-3.8-1.6c-0.6-0.5-1-1.2-1.4-1.9c-1.5-2.7-1.8-6.2,0-8.7
			c0.7-1.1,1.8-1.9,3-2.3"/>
		<path class="st5" d="M569.2,58.3c0.6,0.4,1.2,0.8,1.6,1.4c0.5,0.6,0.7,1.4,0.9,2.2c0.4,1.5,0.9,3,0.5,4.5
			c-0.5,2.1-2.4,3.6-4.2,4.7c-0.5,0.3-1,0.6-1.6,0.8c-2.2,0.7-4.6,0.2-6.6-0.9c-0.6-0.3-1.2-0.7-1.7-1.2c-0.4-0.5-0.7-1.1-1-1.7
			c-0.7-1.4-1.4-3-1.4-4.6c0-2.3,1.4-4.5,3.4-5.6C562.1,56.1,566.3,56.4,569.2,58.3z"/>
		<path class="st5" d="M529.4,38.1c4.8,1.2,9,4.6,11.3,9"/>
		<path class="st5" d="M531.6,37.9c0,0.7-0.3,1.3-0.8,1.8"/>
		<path class="st5" d="M533.8,39c0,0.7-0.3,1.3-0.8,1.8"/>
		<path class="st5" d="M536.5,40.7c-0.2,0.8-0.7,1.5-1.3,2.1"/>
		<path class="st5" d="M539.3,43.2c-0.5,0.9-1.1,1.7-1.8,2.4"/>
		<path class="st5" d="M567.1,61.4c-0.3,0-0.6-0.1-0.9-0.1c-0.5,0-1,0.5-1.2,1c-0.2,0.5-0.1,1.1,0.1,1.6c0.1,0.2,0.2,0.4,0.4,0.6
			c0.5,0.5,1.3,0.5,1.9,0c0.5-0.4,0.8-1.2,0.6-1.8c-0.1-0.7-0.6-1.2-1.2-1.5"/>
		<path class="st5" d="M524.5,56.7c-0.6-0.1-1.2-0.3-1.7,0c-0.5,0.3-0.7,1-0.8,1.5c-0.1,0.3-0.1,0.7,0.1,1c0.1,0.1,0.3,0.2,0.5,0.3
			c0.3,0.1,0.6,0.2,0.9,0.2c0.6,0,1.2-0.3,1.5-0.9c0.3-0.5,0.2-1.2-0.2-1.7c-0.2-0.2-0.4-0.4-0.4-0.7"/>
	</g>
	<g>
		<path class="st5" d="M126.6,48c0.5-1.3,1.6-2.2,3-2.4c0.5-0.1,1,0,1.4,0.3c0.2,0.2,0.3,0.4,0.5,0.6c0.6,1.1,0.9,2.3,0.9,3.5
			c0,0.4-0.1,0.8-0.2,1.2c-0.2,0.4-0.5,0.8-0.7,1.1c-0.5,0.6-1.3,1.9-1.7,1.4"/>
		<path class="st5" d="M126.9,48.1c-4.1-1.1-8.2-3.4-12.2-4.9c-4.2-1.6-8.4-2.9-12.7-4c-5.6-1.3-11.2-2-16.9-2.5
			c-2.8-0.2-5.6-0.4-8.4-0.5c-0.9,0-3.4,0.3-4.2-0.2c-0.7-0.4-0.7-1.9-1.2-2.6c-0.6-0.8-1.6-1.3-2.5-1.1c-1.4,0.4-1.8,2.2-1.9,3.6
			c0,0.6,0.1,1.4,0.7,1.4c-2.5,1.9-2.7,3.7-4.2,6.5c-3.2,6-6.1,12.3-7.7,18.9c-0.6,2.7-1.1,5.5-0.2,8.2c-0.7-0.2-0.3,0.1-0.9,0.4
			c-0.2,0.1-0.4,0.3-0.6,0.5c-1.1,1.2-1.8,2.8-1.8,4.5c0.9,0.3,1.9-0.1,2.7-0.6c0.8-0.5,1.6-1,2.6-1.1c1.6,2.1,4.6,2.1,7,3.4
			c1.1,0.6,2.1,1.6,3.2,2.2c0.7,0.4,1.5,0.6,2.3,0.9c3.8,1.2,7.7,2.3,11.6,3.3c4.2,1.1,8.4,2.1,12.6,3c0.8,0.2,1.6,0.4,2.4,0.5
			c4.3,0.8,8.7,1,13,1.5c0.6,0.1,1.3,0.1,1.9,0.4c1.4,0.5,2.3,1.9,2.8,3.2c0.2,0.5,0.3,1,0.7,1.3c0.6,0.6,1.5,0.7,2.3,0.3
			c0.8-0.3,1.3-1,1.8-1.7c0.6-0.9,1.1-2,1-3.1c-0.1-1.1-0.7-2.2-1.8-2.6c-0.4-0.1-0.9-0.1-1.4,0.1c-0.6,0.3-1,0.8-1.1,1.4"/>
		<path class="st5" d="M93.3,51.1c0.3,3.2-0.9,6.3-2.2,9.3c-1.7,4.2-3.7,8.7-7.7,10.9"/>
		<path class="st5" d="M125.8,53.6c-2.8,1.9-4.9,4.8-6.4,7.9c-1.4,3.1-2.3,6.5-3.1,9.8c-0.8,3.5-1.6,7.2-0.9,10.8
			c2.8-1.4,4.1-4.4,5.3-7.3C123.6,68,125.9,61,125.8,53.6z"/>
		<path class="st5" d="M125.5,58.6c-0.9-0.6-1.8-1.1-2.8-1.5c-0.2-0.1-0.4-0.2-0.7-0.1"/>
		<path class="st5" d="M124.3,64.4c-0.8-0.1-1.4-0.8-2.2-1.2c-1-0.6-2.1-0.7-3.3-0.8"/>
		<path class="st5" d="M122.9,68.7c-0.6,0-1.1-0.6-1.6-1c-0.1-0.1-0.3-0.1-0.4-0.2c-1.1-0.5-2.2-0.8-3.3-1"/>
		<path class="st5" d="M121.4,72.6c-1-0.3-1.7-1.1-2.6-1.5c-0.7-0.3-1.5-0.4-2.3-0.3"/>
		<path class="st5" d="M119.7,76.6c-1.2-0.8-2.7-1.3-4.2-1.2"/>
		<path class="st5" d="M114.5,86.5l1.7,1.3l1.3-0.4c0,0,0.3-0.3,0.4-0.5c2.4-2.9,4-5.9,5.6-9.3c1.8-3.9,3.4-7.9,4.3-12.1
			c1.2-5.2,1.5-10.5,1.5-15.8"/>
	</g>
	<g>
		
			<ellipse transform="matrix(0.7071 -0.7071 0.7071 0.7071 -153.6142 261.1541)" class="st5" cx="238.4" cy="316" rx="26.3" ry="26.3"/>
		<path class="st5" d="M238.4,291.8c0,1,0,1.9,0,2.9"/>
		<path class="st5" d="M214.6,315.4c0.9,0,1.7,0,2.6,0"/>
		<path class="st5" d="M258.9,315.4c1,0,2,0.1,3,0.1"/>
		<path class="st5" d="M238.5,336.3c0,1.1,0,2.2,0,3.3"/>
		<path class="st5" d="M238.5,301.1c0,5-0.1,10.1-0.4,15.1c3.9,3,8.2,5.7,11.2,9.7"/>
	</g>
	<g>
		<polygon class="st5" points="285.7,530.6 284.2,531.5 286.9,531.8 293.4,532.6 301.5,533.7 306,534.2 313.6,532.9 319,532.1 
			321.4,532.4 321.1,529.1 320.5,525.2 318.6,520.5 315.5,515.4 311.6,511.6 309.2,509.9 306.4,508.7 303.6,508.4 301.6,508.8 
			298.6,510.1 295.9,512 292.9,515 290.6,518.5 288.1,523.6 287.2,525.9 		"/>
		<polygon class="st5" points="304.6,500.8 305.5,500.1 306.8,499.9 307.1,501.2 309.8,501.2 310.2,502.5 310.2,504.2 310.7,504.6 
			310.9,505.7 310.3,506.8 310.6,507.5 310.7,508.4 310.1,509.4 309.1,509.9 307.1,509 305.1,508.5 303.1,508.5 301.4,508.8 
			300.8,508 300.9,507.2 300.2,507.6 299.5,506.6 299.6,505.6 301,504.5 300.2,503.8 299.9,502.8 300.2,501.8 301.5,501.6 
			301.1,500.3 302.3,499.9 303.5,499.9 		"/>
		<polygon class="st5" points="284.1,531.6 283,532.4 282.1,533.3 281.7,535.5 281.9,537.3 282.1,539.1 282.8,541.2 284.2,542.5 
			286.5,543.6 290.6,543.8 294,543.8 296.8,544.5 301.5,544.8 310.5,544.5 320,543.4 322.3,542.6 324.2,541.2 325.3,538.8 
			325.5,536.7 324.6,534.7 323.1,533.1 321.4,532.4 319.3,532.1 318,532.1 314.4,532.7 310.2,533.5 306.4,534.2 302.6,533.7 
			296,532.8 288.6,532 		"/>
		<path class="st5" d="M283,531.8c1.4-0.4,2.9-0.2,4.3,0c5.5,0.7,11,1.4,16.5,2.1c0.7,0.1,1.4,0.2,2.1,0.2c1.1,0,2.2-0.2,3.3-0.4
			c2.8-0.6,5.6-1.3,8.4-1.5c1.7-0.2,3.4-0.2,4.9,0.6c1.8,0.9,2.9,3,2.8,5c-0.1,2-1.3,3.9-3.1,4.9c-1.2,0.7-2.6,0.9-4,1.1
			c-5.5,0.7-11,1.1-16.5,1.2c-1.3,0-2.6,0-3.9-0.2c-1-0.2-1.9-0.5-2.9-0.6c-2.1-0.3-4.2,0-6.3-0.2c-2.1-0.1-4.4-0.8-5.6-2.5
			c-0.9-1.3-1.1-2.9-1.2-4.5c-0.1-1.1-0.1-2.2,0.2-3.2c0.3-1,2.6-2.7,3.6-3c1.2-4.2,2.7-8.3,4.9-12.1c2.2-3.7,5.2-7.1,9.1-9.1
			c0.9-0.5,2-0.9,3-1.1c3.2-0.5,6.3,1,8.8,2.9c6.1,4.7,9.9,13.1,9.9,20.8"/>
		<path class="st5" d="M286.9,532.9c-1.7,2.1-2.5,4.9-2.3,7.6"/>
		<path class="st5" d="M295.5,534.5c-1.8,2.6-2.6,6-1.6,9"/>
		<path class="st5" d="M300,534.9c-0.1,1.3-0.7,2.6-1.1,3.9c-0.4,1.3-0.7,2.7-0.3,4"/>
		<path class="st5" d="M302.6,535.2c0.8,2.6,1.2,5.3,1.1,7.9"/>
		<path class="st5" d="M308.1,535.1c1.1,0.9,1.7,2.4,1.9,3.8c0.2,1.4-0.1,2.9-0.5,4.3"/>
		<path class="st5" d="M313.4,534.5c1.5,2.3,2.1,5,1.9,7.7"/>
		<path class="st5" d="M318.6,533.4c0.5,1,1,2.1,1.4,3.1c0.7,1.6,1.4,3.4,0.6,4.9"/>
		<path class="st5" d="M291.5,533.8c-0.8,0.2-1.4,0.8-1.7,1.5c-0.4,0.7-0.5,1.5-0.7,2.3c-0.2,1.4-0.3,2.9-0.1,4.3"/>
		<path class="st5" d="M301.6,508.9c-0.7-0.3-1.1-1.4-0.6-2c-0.3,0.3-0.6,0.5-0.9,0.7c-0.6-0.4-0.9-1.3-0.6-1.9
			c0.2-0.7,1-1.2,1.7-1.1c-0.5-0.2-1-0.6-1.3-1.2c-0.2-0.5-0.2-1.2,0.3-1.6c0.4-0.4,1.2-0.4,1.5,0.1c-0.4-0.5-0.6-1-0.7-1.6
			c0.6-0.3,1.3-0.5,2-0.5c0.7,0,1.4,0.5,1.4,1.2c0.5-0.8,1.4-1.2,2.3-1.1c0.2,0.4,0.3,0.8,0.4,1.2c0.7,0,1.3,0,2,0
			c0.2,0,0.5,0,0.6,0.1c0.2,0.1,0.2,0.3,0.3,0.5c0.3,0.9,0.5,2.1-0.3,2.7c0.1-0.3,0.5-0.3,0.8-0.1c0.2,0.2,0.3,0.5,0.3,0.8
			c0.1,0.4,0.1,0.8,0,1.1c-0.2,0.4-0.6,0.6-0.9,0.4c0.8,0.4,1.1,1.6,0.5,2.3c-0.5,0.8-1.5,1-2.5,0.9"/>
		<path class="st5" d="M303.7,504c-0.2,0-0.3-0.1-0.5-0.1c-0.3-0.3-0.2-0.9,0.1-1.2c0.3-0.3,2,0,2.3,0.3c0.4-0.3,1.3-0.4,1.7-0.1
			c0.4,0.3,0.6,0.9,0.3,1.3c-0.3,0.4-1.1,0.4-1.3-0.1"/>
		<path class="st5" d="M302.4,507.6c-0.4-0.1-0.5-0.6-0.5-1s0.3-0.7,0.5-1c0.5-0.1,1,0.1,1.3,0.4"/>
		<path class="st5" d="M306,506c0.1-0.3,0.5-0.4,0.8-0.3c0.3,0.1,0.5,0.4,0.6,0.7c0.1,0.3,0,0.7-0.2,0.9c-0.3,0.2-0.7,0.2-0.9-0.1"
			/>
	</g>
	<g>
		<path class="st5" d="M504.1,335.1c-0.1-0.9-0.2-2,0.5-2.6c0.2-0.2,0.5-0.3,0.7-0.4c1.2-0.4,2.5-0.5,3.7-0.4
			c0.7,0.1,1.4,0.2,1.9,0.6c0.8,0.6,0.9,1.7,1,2.7"/>
		<path class="st5" d="M490.7,372c-1.3,3-2.1,6.2-2.9,9.4c-0.4,1.6-0.8,3.3-1.3,4.9c0.2,0,0.4-0.2,0.5-0.4c3.3-4.4,6.4-9,9.1-13.9"
			/>
		<path class="st5" d="M521.1,371.9c1,1.3,1.9,2.5,2.9,3.8c0.5,0.6,0.9,1.2,1.3,1.9c0.5,0.8,0.8,1.8,1.1,2.6c0.8,1.9,2,3.6,3.1,5.4
			c0-0.8-0.2-1.5-0.5-2.3c-1.4-3.7-2.5-7.4-3.3-11.3"/>
		<path class="st5" d="M482.1,341.5c1.2,8-0.4,16.1-0.4,24.2c0,1.2,0,2.5,0.4,3.7c0.4,1.2,1.2,2.3,2.4,2.7c0.9,0.3,1.8,0.3,2.8,0.3
			c5.9-0.2,11.7-0.5,17.6-0.7c3-0.1,6-0.3,9,0.2c1,0.1,2,0.3,2.9,0.4c1.3,0.1,2.6-0.1,3.9-0.2c3.9-0.3,7.8,0.1,11.7,0.5
			c2.1,0.2,4.5,0.2,5.7-1.5c0.6-1,0.7-2.2,0.7-3.3c0-2.4,0-4.8-0.6-7.1c-0.3-1-0.6-2-0.7-3c-0.1-0.8,0-1.7,0-2.5
			c0.3-3.4,0.5-6.7,0.8-10.1c0.2-2.7,0.4-5.5-0.3-8.1c-0.1-0.4-0.2-0.8-0.6-1.1c-0.2-0.2-0.5-0.2-0.8-0.3c-2.5-0.6-5-1.1-7.6-1
			c-2.3,0.1-4.7,0.9-7,0.6c-0.8-0.1-1.7-0.4-2.5-0.4c-1.6-0.2-3.3,0.2-4.9,0.4c-3.7,0.4-7.3-0.2-11-0.3c-1.8-0.1-3.5,0-5.3,0.1
			c-1.1,0-2.3,0.1-3.4,0.1c-3.5,0-7.4-0.1-10.8,0.4C481.2,335.8,481.8,339.2,482.1,341.5z"/>
		<path class="st5" d="M486.7,341.4c0.1-0.3,0.1-0.7,0.3-1c0.5-0.8,1.5-1,2.4-1.1c4.5-0.5,9.1-0.5,13.6-0.6c2.3,0,4.7,0,7-0.1
			c3.6,0,7.1-0.1,10.7,0.2c0.5,0,1,0.1,1.5,0.3c1.7,0.7,2.2,2.7,2.4,4.5c0.8,6.3,0.9,12.7,0.2,19.1c-0.2,1.5-0.5,3.3-1.8,4.1
			c-0.7,0.4-1.5,0.5-2.3,0.6c-2.9,0.2-5.9,0.4-8.8,0.6c-1.2,0.1-2.4,0.1-3.6,0c-1-0.1-2-0.5-3-0.5c-1.4-0.1-2.8,0.3-4.2,0.5
			c-1.9,0.3-3.9,0.3-5.9,0.3c-2.1,0-4.2,0-6.2-0.7c-0.9-0.4-1.9-0.9-2.3-1.8c-0.3-0.6-0.3-1.4-0.5-2.1c-0.4-2.2-0.9-3.9-0.5-6.2
			c0.3-1.4,0.6-2.9,0.6-4.3c0-1.8-0.3-3.6-0.4-5.3C485.9,345.6,486.3,343.5,486.7,341.4z"/>
		<path class="st5" d="M530.2,345.8c0.3,0.1,0.7,0.2,1.1,0.2c0.5,0,1.1,0,1.6-0.2c3.3-1.1,2-5.5-1.1-5.8
			C528.8,339.8,527.4,344.6,530.2,345.8z"/>
		<path class="st5" d="M529.8,354.8c0.8,0.6,1.9,0.8,2.9,0.6c0.4-0.1,0.9-0.2,1.2-0.5c0.7-0.6,0.8-1.6,0.9-2.6
			c0.2-2-2.5-3.2-4.3-2.6C528.3,350.4,528.1,353.5,529.8,354.8z"/>
		<path class="st5" d="M527.8,360.3c2.7-0.2,5.5-0.3,8.3-0.2"/>
		<path class="st5" d="M527.4,362.6c3,0.1,6,0.1,9,0.2"/>
		<path class="st5" d="M527.1,365.8c3.2,0,6.4-0.1,9.6-0.1"/>
		<path class="st5" d="M505.9,332.1c-3.7-4.7-7.3-9.6-10.8-14.5c-0.5,0.2-1.2,0.3-1.5-0.2c-0.3-0.5,0.4-1.1,0.9-0.9
			c0.5,0.1,0.8,0.7,0.8,1.3"/>
		<path class="st5" d="M509.9,331.7c1.2-1.2,2.4-2.4,3.6-3.5c2.8-2.7,5.6-5.5,8.9-7.7c-0.2,0-0.4-0.1-0.6-0.1
			c-0.2-0.2-0.1-0.7,0.2-0.8c0.3-0.2,0.6-0.2,0.9-0.1c0.2,0,0.4,0,0.5,0.1c0.5,0.3,0.4,1.1-0.1,1.4c-0.5,0.3-1.1,0.1-1.6-0.3"/>
	</g>
	<g>
		<g>
			<path class="st5" d="M108.2,382.7c0.5-0.1,0.9-0.3,1.3-0.5c0.2-0.1,0.6-0.6,0.7-0.6c1.2,0.1,1.7-1.5,0.9-2.3
				c-1.1-1.1-1.8-2.4-2.5-3.8c-0.8-1.6-1.6-3.2-2.5-4.7c-0.5-0.9-2.2-0.8-2.4,0.3c-0.3,1.8,0.3,3.5,0.8,5.2c0.2,0.8,0.5,1.6,0.7,2.4
				c0.3,0.9,0.4,1.7,1.2,2.2c-0.2-0.6-0.3-1.2-0.5-1.8c-0.2,0.4-0.3,0.7-0.3,1.1c0,1.5,2.2,1.8,2.6,0.4c0.3-1,0.1-1.9-0.1-2.9
				c-0.1-0.9-0.4-1.8-0.6-2.6c-0.4-1.8-1-3.6-1.5-5.4c-0.3-0.9-1.2-1.2-2-0.8c-0.2,0.1-0.4,0.3-0.6,0.5c-0.1,0.1-0.3,0.7-0.1,0.4
				c0.2-0.2,0.3-0.3,0.5-0.5c0,0-0.1,0-0.1,0c0.2-0.1,0.4-0.1,0.7-0.2c0,0-0.1,0-0.1,0c0.4,0.2,0.8,0.4,1.2,0.7c0,0,0,0,0-0.1
				c-0.8-1.1-2.4-0.7-2.5,0.7c0,0.5,0,1.1,0.2,1.6c0.4,1.7,3,1,2.6-0.7c-0.1-0.3-0.1-0.6-0.1-0.9c-0.8,0.2-1.7,0.4-2.5,0.7
				c0.4,0.5,1,0.9,1.6,0.7c0.2-0.1,0.5-0.2,0.7-0.4c0.1-0.1,0.2-0.2,0.3-0.4c0.2-0.3,0.2-0.4,0.1-0.3c-0.2,0.2-0.3,0.3-0.5,0.5
				c0,0,0.1,0,0.1-0.1c-0.7-0.3-1.3-0.5-2-0.8c0.5,1.6,1,3.3,1.4,4.9c0.2,0.8,0.4,1.5,0.5,2.3c0.1,0.7,0.4,1.5,0.2,2.2
				c0.9,0.1,1.7,0.2,2.6,0.4c0,0.1-0.1,0.2-0.1,0.3c0.4-0.7,0.1-1.4-0.5-1.8c0,0-0.1-0.1-0.1-0.1c0.2,0.2,0.3,0.3,0.5,0.5
				c-0.1-0.2,0,0.1-0.1-0.1c-0.1-0.2-0.1-0.3-0.2-0.5c-0.1-0.3-0.2-0.6-0.3-0.9c-0.2-0.7-0.4-1.3-0.6-2c-0.2-0.6-0.4-1.2-0.5-1.9
				c-0.1-0.6-0.3-1.2-0.2-1.8c-0.8,0.1-1.6,0.2-2.4,0.3c0.9,1.6,1.8,3.3,2.6,4.9c0.7,1.5,1.6,3,2.8,4.2c0.3-0.8,0.6-1.5,0.9-2.3
				c-0.7-0.1-1.3,0.2-1.8,0.7c-0.3,0.3-0.5,0.4-1,0.5c-0.7,0.1-1.1,1-0.9,1.6C106.8,382.5,107.5,382.8,108.2,382.7L108.2,382.7z"/>
		</g>
		<g>
			<path class="st5" d="M105.1,370.3c1.7,0,1.7-2.7,0-2.7C103.4,367.6,103.4,370.3,105.1,370.3L105.1,370.3z"/>
		</g>
		<g id="_x37_Lq26O_00000009552247370199358930000001795122233522187657_">
			<g>
				<path class="st5" d="M117.6,354.7c-0.3-0.4-0.9-0.5-1.4-0.5c-1.9-0.1-3-1.1-3-2.7c0-1.6,1.3-2.9,3.1-2.9c2.1,0,4.2,0.6,5.6,2.2"
					/>
				<path class="st5" d="M102.9,374.7c-3.2,1.6-6.6,1.9-9.9,0.7c-3.1-1.1-5.4-5.8-2-9.2c0.4-0.4,0.8-0.8,1.2-1.2
					c0.6-0.7,1-1.4,0.5-2.3c-0.6-0.9-1.5-0.7-2.3-0.4c-1.4,0.5-2.3,1.8-3.3,2.9c-3.3,4-2.3,9.8,1.3,12.7c3.2,2.5,6.8,3.1,10.6,2.7
					c1.9-0.2,3.8-0.5,5.5-1.5"/>
				<path class="st5" d="M104.3,367.9c-0.4,0.7-0.5,1.9-1.2,2c-2.2,0.4-4.5,1.1-6.8,0.7c-1.5-0.3-2.2-1.5-1.6-3
					c0.5-1.4,1.6-2.4,2.8-3.1c2.8-1.8,5.8-3.2,9-4.3c4.2-1.5,8.3-3,11.8-5.8c2.6-2.1,4.9-4.4,7.1-6.8c1.5-1.7,3.1-3.4,5.2-4.5
					c1-0.5,1.4-1.2,1.6-2.1c0.3-1.1,0.6-2.1,1.3-3c0.6-0.8,1.4-1,2-0.3c0.3,0.3,0.5,0.8,0.7,1.1c0.9,1.3,1.1,3,1.8,4.4
					c2.1,0.5,4.1,1.2,6,2.4c0.6-1.2,1.2-2.1,2-2.9c0.7-0.8,1.4-1.9,2.5-1.6c1,0.3,1.3,1.4,1.5,2.4c1.3,5.8-1.2,18.9-3.3,24.5
					c-1.8,4-4.3,7.6-7.3,10.8c-4.2,4.6-9.3,8-15.2,9.9c-5.9,1.8-11.9,2.4-18.1,1.5c-1.3-0.2-2.7-0.5-3.8-1.6c-1.6-1.6-1.5-3.2,0.6-4
					c2.6-1,5.1-2,7.7-3.2c0.2-0.1,0.3-0.3,0.5-0.4"/>
				<path class="st5" d="M131.7,362.3c-1.3,0.3-2.6,1.1-4,0.2c-2.2-1.4-2-3.2-0.4-4.5c2.2-1.8,4.9-1.3,7.2,1
					c2.2,2.2,2.6,6.5,0.9,8.9"/>
				<path class="st5" d="M107.2,382.7c-2.6-2.5-4.8-6.4-4.6-10.2c0-0.8,0.6-1.8,0.3-2.6"/>
				<path class="st5" d="M129.8,363.1c0.3,1.1-0.2,2-0.6,2.9c-0.2,0.4-0.5,0.3-0.8,0.3"/>
				<path class="st5" d="M122.5,344.5c1.2,0.5,2.1,1.3,2.9,2.3"/>
				<path class="st5" d="M148.5,361.1c1.1,0.5,3.1,1.1,4,1.7"/>
				<path class="st5" d="M124.2,342.9c1,0.6,1.8,1.5,2.5,2.4"/>
				<path class="st5" d="M153.9,359.9c-1.6-1.2-3.5-1.5-5.4-2"/>
			</g>
		</g>
		<path class="st5" d="M141,353.1c-0.3,0.7,0,1.6,0.7,2c0.7,0.3,1.6,0,2-0.7c0.3-0.7,0-1.6-0.7-2C142.2,352,141.4,352.3,141,353.1z"
			/>
		<path class="st5" d="M131.8,348.4c-0.4,0.9,0,1.9,0.8,2.3c0.9,0.4,1.9,0,2.3-0.8c0.4-0.9,0-1.9-0.8-2.3
			C133.3,347.2,132.2,347.6,131.8,348.4z"/>
		<path class="st5" d="M138,354.6c-0.2,0.2-0.4,0.5-0.7,0.6c-0.4,0.2-0.9,0-1.2-0.3c-0.3-0.4-0.2-0.9,0.1-1.2"/>
	</g>
	<path class="st5" d="M27.5,304.2c1.5-0.2,2.8-1,4.2-1.5c4.6-1.7,9.4-2.8,13.9-4.6c3.9-1.6,7.3-3.8,9.2-7.6c2.2-4.3,2-8.5-1.6-12.1
		c-3.1-3.1-7.7-3.8-11.9-1.5c-0.7,0.4-1.2,1.2-2,1.3c-0.5,0.1-0.9,0.3-1.2,0.7l0.2-0.4c-0.9-1-0.7-2.4-1.1-3.6
		c-2.3-6.5-9.3-9.1-15-5.3c-4.3,2.9-5.2,7.4-4.5,12.3c0.5,3.5,2,6.7,3.7,9.8c2.1,4,4.3,8.1,6,12.3"/>
	<path class="st5" d="M575.3,491.6c0.4-0.8,0.5-1.8,0.7-2.7c0.8-2.9,1.9-5.8,2.6-8.7c0.6-2.5,0.6-5-0.6-7.4c-1.4-2.6-3.6-4-6.7-3.5
		c-2.7,0.5-4.7,2.6-5,5.5c-0.1,0.5,0.2,1-0.1,1.5c-0.2,0.3-0.2,0.6-0.1,0.8L566,477c-0.9,0.1-1.5-0.5-2.2-0.7
		c-4.1-1.2-7.9,1.5-8,5.8c-0.1,3.2,1.9,5.3,4.7,6.7c2,1,4.1,1.3,6.3,1.6c2.8,0.3,5.6,0.7,8.4,1.3"/>
	<path class="st5" d="M327.7,221.7c1.6,1.4,2.2,3.5,3.1,5.3c0.8,1.6,1.7,1.9,3.3,2.1c1.9,0.1,4,0.1,5.6,1.5c-0.1,1.4-1.1,2-1.9,2.5
		c-3.7,2.4-4,5.6-2.6,9.4c0.6,1.4,0.2,2.3-1.3,3c-2.1-1.2-4.4-2.4-6.6-3.6c-2.3,1.2-4.6,2.4-7.1,3.8c-2.3-3,0.5-5.7-0.1-8.4
		c-0.8-2.9-5.3-3.4-4.9-7.8c2.2,0.6,3.9-0.5,5.8-0.5c1.4,0,2.3-0.9,3-2.3c0.9-1.9,1.3-4.2,3.4-5.3"/>
	<path class="st5" d="M522.6,135.8c1.9,1.7,2.6,4.1,3.7,6.3c0.9,1.9,2,2.3,3.9,2.4c2.3,0.2,4.8,0.1,6.7,1.7c-0.2,1.7-1.3,2.4-2.2,3
		c-4.4,2.9-4.8,6.7-3.1,11.1c0.7,1.7,0.2,2.8-1.6,3.6c-2.5-1.4-5.2-2.8-7.9-4.3c-2.7,1.4-5.5,2.9-8.5,4.5c-2.7-3.5,0.6-6.8-0.1-10
		c-1-3.4-6.3-4-5.9-9.2c2.6,0.7,4.6-0.6,6.9-0.6c1.7,0,2.7-1.1,3.5-2.7c1.1-2.2,1.5-5,4.1-6.3"/>
	<g>
		<path class="st5" d="M325.1,125.7l-1.3-1l-2.2-0.9l-1.7-0.2l-1.2,0.3l-1.9,0.9l-1.7,1.2l-1.7,0.7l-1.1,0.1l0.1-2.2L312,122
			l-0.8-2.4l-1.5,1.2l-2.9,1.2l-2.8,0.7l-5.8,0.4l-6.8-0.1l-4.1-0.3l-0.7-0.4l-0.7,0.1l-2-0.2l-1.2-0.4l-0.4,0.2l-1.4-0.4L277,121
			l-3.2-1.3l-1-0.9l-0.5,0.8l-0.7,4.1l-0.3,3.9l-0.2,3.8l0.3,3.7l0.5,3.4l0.5,2.5l1.1,3.9l-2.5,0.4l-5.6,1.4l-2.4,1.4l-1.1,1.7
			l0.1,1.3l0.7,1.5l0.4,0.6l0,0.6l2.1,2.4l1.9,1.2l2.6,1.4l4.2,1.2l6.6,0.8l7.2,0.4l7.5,0l5.3-0.2l4.6-0.6l3.7-1l3.2-1.4l2.1-1.3
			l0.1-0.5l2.1-1.5l1.1-1.5l0.4-1.8l-0.9-2.1l-1.6-1.6l-2.2-1.2l-2.5-1l-3.1-0.4l-1.2-0.1l0.6-1.6l1.1-2.5l0.7,0.6l1.2,0.2l0.9-0.7
			l0.6-1.2l0.1-1.7l1-1.5l1.5-1.1l1.8-0.4l2.9-0.6l2.3-0.8l1.9-1l1.5-1.2l1-1.7l0.3-2.1L325.1,125.7z M320.1,130.4l-0.8,1l-1.3,0.8
			l-2.2,0.7l-2.1,0.8l-1.3,0.7l-0.9,0.7l-0.8,0.9l-0.7,0.1l0.2-1.2l0.5-1.3l0.5-1.8l0.6-2l1-0.1l1.6-0.7l1.7-0.8l1.5-0.6l1.1-0.1
			l0.8,0.3l0.5,0.7l0.1,1.1L320.1,130.4z"/>
		<polygon class="st5" points="276.7,133.9 280,134 282.4,133.7 285.9,133.8 287.8,133.8 288.9,134.5 289,136 288.6,138.8 
			288.2,141.9 287.7,143.3 286.9,144.8 286.4,146 285.7,146.6 283.5,146.8 280.8,146.9 279.8,146.7 278.5,144.8 276.7,141.7 
			276.3,140.4 276.2,138.9 276.1,136.7 276.2,134.6 		"/>
		<path class="st5" d="M310.2,136.3c-0.1-0.2-0.1-0.5,0-0.7c0.7-1.7,1.2-3.5,1.6-5.3c0.2-1,0.3-1.9,0.4-2.9c0.1-0.7,0.1-1.5,0.1-2.2
			c-0.1-1.7-0.3-3.4-0.9-5c-0.1-0.4-0.3-0.8-0.5-1.2c-0.2-0.7-0.8-1.1-1.4-1.5c-1.4-0.9-2.9-1.3-4.5-1.6c-2-0.4-4-0.6-6.1-0.8
			c-1.9-0.2-3.9-0.3-5.9-0.4c-1.5-0.1-3.1-0.1-4.6,0c-1.2,0-2.4,0.1-3.6,0.2c-1.7,0.1-3.5,0.3-5.2,0.6c-1.2,0.2-2.3,0.4-3.5,0.7
			c-0.7,0.2-1.4,0.3-2,0.5c-1.1,0.4-1.5,1.2-1.4,2.2"/>
		<path class="st5" d="M308.2,141.1c0.3,0.1,0.5,0.4,0.8,0.5c1,0.4,2.1-0.2,2.5-1.3c0.2-0.5,0.2-1.1,0.2-1.6
			c0.1-1.1,0.6-1.8,1.5-2.4c0.8-0.6,1.8-0.8,2.7-1.1c1.3-0.3,2.6-0.5,3.8-0.9c1.9-0.5,3.6-1.4,4.9-2.9c1.3-1.5,1.6-3.7,0.6-5.3
			c-0.5-0.9-1.4-1.4-2.3-1.7c-0.9-0.4-1.8-0.6-2.8-0.6c-0.9,0-1.8,0.3-2.5,0.8c-0.8,0.5-1.6,1-2.4,1.5c-0.6,0.4-1.3,0.8-2.1,0.9
			c-0.2,0-0.5,0.1-0.7,0.1"/>
		<path class="st5" d="M282.2,122.2c-0.2-0.2-0.4-0.2-0.6-0.3c-1.9-0.4-3.9-0.7-5.7-1.3c-1.1-0.4-2.1-0.8-2.9-1.6
			c0-0.1-0.1-0.1-0.2-0.1c-0.3,0.3-0.4,0.7-0.4,1c-0.3,1.4-0.6,2.8-0.8,4.2c-0.2,1.4-0.3,2.8-0.4,4.3c0,0.5-0.1,1-0.1,1.5
			c0,1.5,0.1,2.9,0.2,4.4c0.1,1,0.2,1.9,0.3,2.9c0.1,1.1,0.4,2.2,0.6,3.2c0.3,1.4,0.7,2.8,1.1,4.2c0.5,1.9,1.6,4.4,2.6,5.7
			c0.8,1.1,1.8,2,2.9,2.8c1.2,0.8,2.5,1.3,3.9,1.6c1.6,0.4,3.3,0.6,5,0.7c1.2,0.1,2.5,0.2,3.7,0.1c2.1-0.1,4.2-0.3,6.3-1
			c1.7-0.5,3.1-1.5,4.3-2.8c1.6-1.8,2.9-3.9,4-6.1c0,0,0,0,0,0c0.2-0.3,0.3-0.5,0.8-0.5c0.7,0.1,1.5,0,2.2,0.1
			c1.4,0.2,2.7,0.6,3.9,1.1c1.1,0.5,2.1,1,3,1.8c0.6,0.5,1.1,1.1,1.5,1.9c0.6,1.3,0.4,2.7-0.5,3.8c-0.7,0.9-1.6,1.6-2.5,2.2
			c-0.1,0-0.2,0.1-0.2,0.1c-0.1,0.7-0.8,0.9-1.3,1.2c-2.3,1.4-4.7,2.3-7.3,2.8c-1.4,0.3-2.9,0.5-4.3,0.7c-0.8,0.1-1.5,0.1-2.3,0.2
			c-1.2,0.1-2.3,0.1-3.5,0.1c-2.5,0.1-5.1,0.1-7.6,0c-1.7,0-3.4-0.1-5.1-0.2c-1.3-0.1-2.5-0.2-3.8-0.3c-1.7-0.1-3.4-0.3-5.1-0.7
			c-3-0.6-5.9-1.6-8.4-3.5c-0.9-0.7-1.7-1.5-2.4-2.5c-0.1-0.1-0.2-0.2-0.1-0.3c0-0.4-0.2-0.7-0.4-0.9c-0.3-0.5-0.6-1-0.8-1.5
			c-0.2-0.9,0.1-1.6,0.6-2.4c0.6-0.8,1.4-1.3,2.3-1.7c1.9-0.8,3.9-1.3,6-1.7c0.9-0.2,1.7-0.2,2.6-0.4"/>
		<path class="st5" d="M311.1,119.7c-1.4,1.6-3.3,2.2-5.3,2.7c-1.5,0.4-3,0.5-4.5,0.7c-1.1,0.1-2.2,0.1-3.3,0.2
			c-0.9,0-1.9,0.1-2.8,0.1c-1.3,0-2.7-0.1-4-0.2c-1.4-0.1-2.7-0.2-4.1-0.4c0,0,0,0,0,0c-0.5-0.3-1.1-0.1-1.7-0.2
			c-0.5-0.1-1.1-0.2-1.7-0.2c-0.3,0-0.6-0.1-0.9-0.2c-0.2-0.1-0.5,0-0.6,0.2c-0.9,1.3,0.7,9.9,0.2,11.4"/>
		<path class="st5" d="M306.5,145.1c0-0.4,0.2-0.7,0.4-1c0.3-0.8,0.7-1.7,1.1-2.5c0.2-0.5,0.3-1.1,0.6-1.6c0.3-0.5,0.5-1.1,0.7-1.7
			c0.2-0.7,0.6-1.2,0.9-1.8c0,0,0-0.1,0.1-0.1c0.9-0.3,1.3-1.2,2-1.7c1-0.7,2.1-1.2,3.3-1.6c1-0.3,2-0.7,2.9-1.2
			c0.8-0.4,1.5-0.9,1.8-1.7c0.4-0.9,0.3-1.8-0.5-2.4c-0.4-0.3-0.8-0.4-1.3-0.3c-1,0.1-1.8,0.6-2.6,1c-1,0.5-1.9,1-3,1.3
			c-0.2,0.1-0.5,0.1-0.7,0"/>
		<path class="st5" d="M290.2,92c0,1.1-0.4,2-1,2.9c-0.6,0.8-1.3,1.5-2,2.2c-1,0.9-1.9,1.9-2.5,3.1c-0.5,1-0.7,2.1-0.6,3.3
			c0.1,1.8,0.8,3.5,1.4,5.2c0.3,0.8,0.7,1.7,0.9,2.5c0,0.1,0,0.1,0,0.2"/>
		<path class="st5" d="M282.4,133.7c1.6,0.2,3.1,0.1,4.7,0.1c1.7-0.1,2,1,1.9,2.1c-0.2,2-0.5,4-0.8,6c-0.1,0.4-0.2,0.8-0.4,1.1
			c-0.4,0.9-0.9,1.7-1.3,2.6c-0.3,0.8-0.9,1.1-1.7,1.1c-1.4,0-2.8,0-4.3,0c-0.4,0-0.8-0.1-1.1-0.4c-1.2-1.8-2.3-3.5-3.1-5.5
			c-0.3-0.9-0.2-1.9-0.3-2.8c-0.1-1-0.1-2-0.1-3c0-0.7,0.1-0.9,0.9-1.1c0.3-0.1,0.6-0.1,0.9-0.1c1.1,0,2.2,0,3.3,0
			C281.5,133.9,281.9,133.9,282.4,133.7"/>
		<path class="st5" d="M293.7,91.5c-0.1,0.8-0.1,1.6-0.2,2.4c-0.3,2.3-1.3,4.2-3.2,5.6c-0.7,0.5-1.3,1.1-1.7,1.8
			c-0.8,1.4-0.3,3.4,0.8,4.4c0.1,0.1,0.2,0.2,0.4,0.1"/>
		<path class="st5" d="M297.6,93.6c0.5,1.1,0.2,2.1-0.4,3.1c-0.4,0.6-0.9,1.2-1.4,1.7c-0.7,0.7-1.3,1.5-1.7,2.4
			c-0.3,0.9-0.4,1.8,0.2,2.7c0.1,0.1,0.2,0.2,0.3,0.2"/>
		<path class="st5" d="M294.4,84.8c-0.7,1-0.9,2.1-0.9,3.3c0,1.1,0.1,2.1,0.1,3.2c0,0.1,0,0.2,0.1,0.2"/>
		<path class="st5" d="M286.5,122.5c-0.4-1.1-1.4-1.7-2.6-1.3c-0.4,0.2-0.9,0.3-1.1,0.8"/>
	</g>
	<path class="st5" d="M550.8,392.8c-2.4-0.4-4.9,1-5.8,3.3c-0.9,2.2-0.1,5,1.8,6.4c0.6,0.4,1.3,0.7,2,0.8c1.5,0.2,3-0.6,3.9-1.9
		c0.9-1.2,1.2-2.8,1.1-4.3c0-0.5-0.1-0.9-0.4-1.3c-0.8-1-3-0.9-3-2.2c0-0.3,0.1-0.7,0-1c-0.1-0.3-0.7-0.3-0.7,0"/>
	<path class="st5" d="M533.7,265.3c-1.2-0.5-2.3,0.8-2.9,2c-1,2.1-1.9,4.9-0.3,6.5c0.6,0.6,1.4,0.8,2.1,1.1c2.3,0.7,5.2,0.7,6.7-1.1
		c1.4-1.7,1-4.3-0.4-6c-1.4-1.7-3.5-2.5-5.6-3"/>
	<path class="st5" d="M149,426.5c-0.3,0.5-0.6,1-0.9,1.5c-1.2,2.4-0.5,5.7,1.6,7.3c2.2,1.6,5.6,1.2,7.2-1c0.9-1.3,1.1-2.9,1.1-4.4
		c0-1.3-0.2-2.7-1.3-3.6c-0.8-0.7-1.9-0.8-2.9-0.8c-2.4-0.1-5.2,0.6-6,2.9"/>
	<g>
		<polygon class="st5" points="407.8,124.2 414,124.4 422.6,124.7 429.5,125 435.4,125.1 438.5,125.2 440.5,125.6 441,126.1 
			441.7,127.5 441.8,129 441.5,131.1 441,132.9 440.6,133.9 434.9,138.9 431.6,141.9 427.9,145.3 425.8,147.1 425.6,147.5 
			425.5,148 425,148.4 423.9,148.9 424,147 424.3,144.8 424.1,141.5 423.6,139.7 422.1,138.2 415.9,137.6 408,136.9 400.2,136.1 
			393.4,135.4 387.7,134.8 386.3,134.7 385.3,134.9 384.5,134.4 384.9,133.8 387.4,132.7 393.8,129.9 		"/>
		<polygon class="st5" points="386,144.4 386.7,143.3 387.3,141.6 387.3,139.9 387.3,138.2 386.6,136.4 385.5,135 386.3,134.7 
			387.9,135 391.7,135.3 406.1,136.7 421.2,138.2 422.1,138.2 423,139.1 423.9,140.7 424.3,144.6 424,147.3 423.9,148.9 422.7,150 
			421.9,150.9 421.4,150.7 420.6,150.9 419.6,150.4 417.3,150.1 406.4,148.2 389.6,145.3 387,144.8 		"/>
		<g id="ZxpTLZ_00000137847712048822050400000009592558513021649027_">
			<g>
				<path class="st5" d="M440.5,133.8c0.6-0.7,0.9-2.4,1.1-3.2c0.2-1,0.3-2,0.2-3c-0.1-0.6-0.5-1.2-0.8-1.7
					c-0.1-0.1-0.2-0.3-0.4-0.3c-0.9-0.1-1.8-0.5-2.8-0.5c-3.2,0-6.4-0.1-9.6-0.2c-1.3-0.1-2.6,0-3.9-0.1c-3-0.2-6.1-0.2-9.1-0.3
					c-1.5-0.1-2.9-0.1-4.4-0.1c-0.8,0-1.7-0.1-2.5-0.1c-0.7-0.1-1.3,0.3-2,0.6c-2.8,1.2-5.6,2.4-8.4,3.6c-3.8,1.6-7.7,3.2-11.5,4.9
					c-0.7,0.3-1.5,0.4-1.9,1.2"/>
				<path class="st5" d="M423.9,148.8c-0.1-0.5,0-1,0.1-1.6c0.4-1.6,0.3-3.2,0.2-4.8c-0.1-0.5-0.1-1-0.2-1.5c-0.2-1-0.9-1.7-1.5-2.5
					c-0.3-0.3-0.9-0.2-1.3-0.3c-2-0.2-4.1-0.4-6.1-0.6c-1.5-0.2-3.1-0.3-4.6-0.4c-1.8-0.2-3.7-0.4-5.5-0.6c-1.6-0.2-3.1-0.3-4.7-0.4
					c-1.8-0.2-3.5-0.3-5.3-0.5c-2.1-0.2-4.2-0.4-6.4-0.7c-0.7-0.1-1.4,0-2-0.2c-0.1-0.1-0.3-0.1-0.5,0c-0.4,0.3-0.9,0.2-1.2-0.1
					c-0.3-0.3-0.8-0.3-1.2-0.4"/>
				<path class="st5" d="M386.2,144.5c0.6,0.3,1.3,0.4,2,0.5c1.8,0.3,3.6,0.6,5.4,0.9c1.8,0.3,3.6,0.6,5.4,1
					c1.5,0.3,2.9,0.5,4.4,0.8c1.7,0.3,3.4,0.6,5.1,0.9c2.4,0.4,4.9,0.9,7.3,1.3c1.2,0.2,2.3,0.5,3.5,0.6c0.3,0,0.6,0.1,0.8,0.3
					c0.3,0.2,0.6,0.3,1,0.2c0.3-0.1,0.6-0.3,0.8,0.1"/>
				<path class="st5" d="M439.9,125.8c-0.7,0.9-1.8,1.4-2.7,2.1c-4.6,3.4-9.1,6.7-13.7,10c-0.3,0.2-0.7,0.4-1,0.6"/>
				<path class="st5" d="M440.5,133.8c-1.1,0.9-2.2,2-3.2,2.9c-2.3,2.1-4.7,4.2-7,6.4c-1.5,1.4-3,2.7-4.4,4.1
					c-0.1,0.1-0.3,0.3-0.3,0.4c0,0.6-0.5,0.9-0.9,1c-1,0.2-1.5,1.1-2.1,1.6c-0.2,0.2-0.4,0.3-0.6,0.6"/>
				<path class="st5" d="M385.5,135c0,0.4,0.4,0.7,0.6,1c1.1,1.3,1.3,2.8,1.1,4.4c0,0.4,0.1,0.9-0.1,1.4c-0.3,0.9-0.6,1.8-1.1,2.5
					c-0.2,0.4-0.5,0.2-0.8,0.1"/>
			</g>
		</g>
		<path class="st5" d="M387,137c10,0.7,26.1,3.9,36.1,4.1c0.3,0,0.5,0,0.8,0.1"/>
		<path class="st5" d="M387.4,139.3c4.9-0.3,9.8,1.1,14.6,1.9c2.4,0.4,4.9,0.8,7.3,1.2c5,0.9,10,0.9,15,1.8"/>
		<path class="st5" d="M387.3,141.7c3.5-0.1,7,0.6,10.5,1.2c5.6,1,11.3,1.9,17,2.6c1.3,0.2,2.5,0.3,3.8,0.6c1.8,0.4,3.6,1.2,5.4,0.9
			"/>
		<path class="st5" d="M386.7,143.2c3.6-0.1,7.5,0.7,11,1.3c4.1,0.7,8.2,2,12.3,2.6c4.4,0.7,8.8,1.6,13.3,2.1"/>
		<path class="st5" d="M439.5,132.7c-0.5,0.4-0.9,0.8-1.4,1.2c-1.9,1.7-3.8,3.4-5.7,5.1c-1.2,1.1-2.4,2.2-3.8,3.1
			c-0.9,0.6-1.9,1.1-2.4,2.1"/>
		<path class="st5" d="M425.8,140.4c1.9-1.4,3.7-2.8,5.6-4.2c0.6-0.4,1.1-0.8,1.6-1.4c0.4-0.4,0.7-0.9,1-1.2
			c0.5-0.5,1.1-0.8,1.7-1.2c1.1-0.8,2.1-1.8,3-2.8"/>
	</g>
	<g>
		<path class="st5" d="M118.2,505c0.1-0.1,0.1-0.3,0.2-0.4c0.3-0.5,0.1-0.9-0.3-1.1c-0.8-0.4-1.6-0.8-2.4-1.2
			c-0.3-0.1-0.6-0.2-0.8,0c-0.1,0-0.1,0.1-0.1,0.1c-0.1,0.2-0.3,0.5-0.3,0.7"/>
		<path class="st5" d="M137.5,515.4c0.2,0.3,0.5,0.6,0.8,0.8c0.7,0.7,1.2,1.4,1.7,2.2c0.3,0.5,0.4,1,0.5,1.5
			c0.1,0.7,0.1,1.4,0.1,2.2c0,0.7-0.1,1.3-0.1,2c0,0.5-0.1,1.1-0.2,1.6c-0.1,0.8-0.2,1.7-0.3,2.5c-0.1,1-0.3,1.9-0.5,2.9
			c-0.2,1-0.5,2-0.8,3.1c-0.2,0.6-0.4,1.2-0.6,1.7c-0.2,0.4-0.3,0.9-0.5,1.3c-0.2,0.4-0.3,0.8-0.5,1.2c-0.4,0.9-0.8,1.7-1.3,2.6
			c-0.3,0.5-0.6,1-0.9,1.4c-0.4,0.5-0.7,1.1-1.2,1.5c-0.3,0.3-0.6,0.6-1,0.9c-0.5,0.3-1,0.6-1.5,0.8c-0.8,0.2-1.5,0.2-2.3,0
			c-0.7-0.2-1.3-0.5-1.9-0.9c-0.8-0.6-1.2-1.3-1.4-2.2c-0.2-0.8-0.2-1.5-0.3-2.3c0-0.5,0.1-1,0.2-1.5c0.1-0.4,0.2-0.8,0.3-1.2
			c0.2-0.7,0.3-1.3,0.5-2c0.2-0.8,0.4-1.5,0.5-2.3c0.1-0.6,0.1-1.2,0-1.7c-0.1-0.4-0.4-0.8-0.6-1.1c-0.4-0.4-0.8-0.8-1.3-1
			c-0.7-0.4-1.4-0.7-2-1.1c-3.5-1.9-7-3.7-10.5-5.5c-0.9-0.5-1.7-0.9-2.6-1.3c-0.6-0.3-1.2-0.5-1.9-0.6c-0.8-0.1-1.5,0.1-2.2,0.7
			c-0.7,0.6-1.3,1.3-2,2c-0.5,0.5-1,1-1.4,1.5c-0.5,0.5-1,1.1-1.5,1.6c-0.3,0.3-0.6,0.5-1,0.8c-0.6,0.3-1.1,0.7-1.7,0.9
			c-0.6,0.2-1.1,0.3-1.7,0.3c-0.5,0-0.9-0.2-1.4-0.4c-0.6-0.3-1.2-0.7-1.7-1.2c-0.4-0.5-0.8-1-0.9-1.7c-0.3-1.1-0.2-2.2,0.1-3.3
			c0.2-0.9,0.6-1.7,0.9-2.5c0.2-0.4,0.4-0.9,0.7-1.3c0.2-0.4,0.4-0.8,0.6-1.1c0.3-0.5,0.6-1,0.9-1.5c0.3-0.5,0.6-0.9,1-1.4
			c0.3-0.5,0.7-0.9,1-1.4c0.5-0.7,1.1-1.3,1.6-1.9c0.7-0.8,1.5-1.5,2.3-2.2c0.6-0.5,1.2-1,1.8-1.6c0.8-0.7,1.7-1.5,2.6-2.1
			c0.6-0.5,1.3-0.9,2-1.3c0.5-0.3,1.1-0.5,1.7-0.6c0.4-0.1,0.8-0.1,1.2-0.1c0.9,0,1.8,0.2,2.7,0.4c0.2,0.1,0.4,0.2,0.7,0.2
			c0.1,0,0.1,0.1,0.2,0.1c0.8,0.4,1.6,0.8,2.4,1.1c0.3,0.1,0.6,0.3,0.8,0.4c0.1,0.1,0.2,0.1,0.4,0.1c0,0,0.1,0,0.1,0
			c0.1,0.1,0.3,0.2,0.4,0.3c1,0.5,1.9,1,2.9,1.5c0.6,0.3,1.3,0.7,1.9,1c0.6,0.4,1.2,0.7,1.8,1c0.2,0.1,0.4,0.3,0.7,0.4
			c1.2,0.6,2.4,1.2,3.6,1.8c1.3,0.7,2.6,1.4,3.9,2c0.3,0.1,0.5,0.2,0.8,0.4c0.7,0.4,1.4,0.8,2.1,1.2c0.3,0.2,0.6,0.4,0.9,0.6
			C137.3,515.3,137.4,515.4,137.5,515.4c0.2-0.2,0.2-0.4,0.4-0.6c0.1-0.2,0.1-0.5,0-0.7c-0.1-0.2-0.3-0.3-0.4-0.4
			c-0.8-0.4-1.5-0.8-2.2-1.2c-0.2-0.1-0.4-0.2-0.7-0.1c-0.2,0.1-0.4,0.2-0.5,0.4c-0.1,0.2-0.2,0.3-0.2,0.4"/>
		<path class="st5" d="M111,516.3c-0.1,0.2-0.2,0.5-0.2,0.7c-0.1,1,0.4,1.9,1.3,2.3c0.8,0.3,1.7,0.2,2.4-0.5
			c0.6-0.6,0.7-1.6,0.5-2.2c-0.2-0.5-0.5-0.9-1-1.2c-0.4-0.2-0.8-0.3-1.2-0.3c-0.6,0.1-1.1,0.3-1.5,0.8
			C111.2,516.1,111.1,516.2,111,516.3C111,516.3,111,516.3,111,516.3"/>
		<path class="st5" d="M120.1,511.2c0.6,0.3,1.5,0.1,1.8-0.6c0.3-0.6,0.1-1.4-0.6-1.8c-0.6-0.3-1.5-0.1-1.9,0.7
			C119.2,510.1,119.5,510.9,120.1,511.2"/>
		<path class="st5" d="M133.3,524.6c0.7,0.4,1.7,0,1.9-0.8c0.2-0.5,0-1-0.4-1.4c-0.4-0.4-0.9-0.5-1.5-0.3c-0.9,0.4-1.1,1.5-0.4,2.2
			C133,524.5,133.2,524.6,133.3,524.6"/>
		<path class="st5" d="M135.3,517.9c0,0.1,0,0.2-0.1,0.2c-0.2,0.6,0.2,1.4,0.8,1.6c0.6,0.2,1.3-0.1,1.6-0.6c0.3-0.6,0.2-1.3-0.3-1.7
			c-0.4-0.3-0.9-0.4-1.4-0.2c-0.2,0.1-0.4,0.3-0.5,0.4C135.3,517.8,135.3,517.9,135.3,517.9"/>
		<path class="st5" d="M129.2,514.4c0.1-0.4,0.2-0.7,0.1-1.1c-0.2-0.6-0.8-1-1.5-0.9c-0.7,0.1-1.2,0.7-1.2,1.4
			c0.1,0.7,0.6,1.2,1.3,1.2C128.6,515.1,129,514.9,129.2,514.4"/>
		<path class="st5" d="M137.9,520.9c-0.6-0.2-1.1-0.1-1.5,0.4c-0.4,0.5-0.5,1.3,0,1.8c0.6,0.7,1.8,0.5,2.2-0.3
			c0.3-0.7,0.1-1.4-0.6-1.8C138,521,138,520.9,137.9,520.9"/>
		<path class="st5" d="M127.4,522.5c-0.2,0-0.4-0.1-0.6-0.2c-0.8-0.1-1.4,0.1-2,0.7c-0.4,0.4-0.5,0.8-0.6,1.3c0,0.6,0.2,1.2,0.6,1.6
			c0.4,0.4,0.9,0.6,1.5,0.6c0.6,0,1.2-0.2,1.6-0.7c0.6-0.7,0.7-1.5,0.4-2.3c-0.2-0.4-0.5-0.7-0.9-1
			C127.5,522.5,127.5,522.5,127.4,522.5"/>
		<path class="st5" d="M112,504.6c-0.2-0.1-0.2,0-0.3,0.2c-0.3,0.6-0.6,1.1-0.9,1.7c-0.1,0.2-0.2,0.3-0.4,0.1
			c-0.6-0.3-1.1-0.6-1.7-0.9c-0.2-0.1-0.3-0.1-0.4,0.1c-0.3,0.6-0.6,1.1-0.9,1.7c-0.1,0.2-0.1,0.3,0.1,0.4c0.6,0.3,1.1,0.6,1.7,0.9
			c0.2,0.1,0.3,0.2,0.1,0.4c-0.3,0.6-0.6,1.1-0.9,1.7c-0.1,0.2-0.1,0.3,0.1,0.4c0.6,0.3,1.2,0.6,1.8,0.9c0.2,0.1,0.3,0.1,0.4-0.1
			c0.3-0.6,0.6-1.1,0.9-1.7c0.1-0.2,0.2-0.3,0.4-0.1c0.5,0.3,1.1,0.6,1.6,0.8c0.2,0.1,0.3,0.1,0.4-0.1c0.3-0.6,0.6-1.2,0.9-1.8
			c0.1-0.2,0.1-0.3-0.1-0.4c-0.5-0.3-1.1-0.6-1.6-0.8c-0.2-0.1-0.3-0.2-0.1-0.4c0.3-0.6,0.6-1.1,0.9-1.7c0.1-0.2,0.1-0.3-0.1-0.4
			C113.2,505.2,112.6,504.9,112,504.6"/>
		<path class="st5" d="M133.3,518.5c-0.8-0.2-1.3,0-1.6,0.6c-0.3,0.6-0.2,1.3,0.3,1.7c0.7,0.6,1.9,0.2,2.1-0.7
			C134.3,519.5,134,518.8,133.3,518.5"/>
	</g>
	<g>
		<path class="st5" d="M377.5,47.6c-0.1-0.1-0.2-0.2-0.3-0.3c-0.3-0.5-0.8-0.4-1.2-0.2c-0.7,0.5-1.4,1.1-2.1,1.6
			c-0.2,0.2-0.4,0.4-0.4,0.8c0,0.1,0,0.1,0,0.2c0.2,0.2,0.3,0.5,0.5,0.6"/>
		<path class="st5" d="M395.1,34.4c0.4,0,0.7-0.2,1.1-0.4c0.9-0.3,1.8-0.5,2.7-0.6c0.5,0,1.1,0.1,1.6,0.2c0.7,0.2,1.4,0.5,2,0.8
			c0.6,0.3,1.2,0.6,1.7,0.9c0.5,0.3,0.9,0.5,1.4,0.8c0.7,0.4,1.4,0.9,2.1,1.3c0.8,0.5,1.6,1.1,2.4,1.6c0.8,0.6,1.6,1.3,2.4,2
			c0.4,0.4,0.9,0.8,1.3,1.3c0.3,0.3,0.7,0.6,1,1c0.3,0.3,0.6,0.6,0.9,1c0.6,0.7,1.2,1.4,1.8,2.2c0.3,0.5,0.6,0.9,0.9,1.4
			c0.3,0.6,0.6,1.1,0.9,1.7c0.2,0.4,0.3,0.8,0.3,1.3c0.1,0.6,0.2,1.1,0.1,1.7c-0.1,0.8-0.5,1.5-0.9,2.1c-0.4,0.6-1,1-1.6,1.3
			c-0.8,0.5-1.7,0.5-2.6,0.4c-0.8-0.1-1.5-0.4-2.2-0.7c-0.5-0.2-0.9-0.5-1.3-0.8c-0.3-0.2-0.7-0.5-1-0.8c-0.5-0.4-1.1-0.8-1.6-1.3
			c-0.6-0.5-1.2-1-1.9-1.4c-0.5-0.3-1-0.6-1.6-0.7c-0.4-0.1-0.9,0-1.3,0.1c-0.5,0.1-1,0.4-1.5,0.7c-0.6,0.4-1.2,0.9-1.9,1.4
			c-3.2,2.3-6.3,4.8-9.5,7.2c-0.8,0.6-1.5,1.2-2.3,1.8c-0.5,0.4-1,0.9-1.3,1.4c-0.4,0.7-0.5,1.4-0.3,2.2c0.2,0.9,0.6,1.8,1,2.6
			c0.3,0.7,0.5,1.3,0.8,1.9c0.3,0.7,0.6,1.4,0.8,2c0.2,0.4,0.2,0.8,0.3,1.2c0.1,0.6,0.1,1.3,0.1,1.9c-0.1,0.6-0.2,1.2-0.5,1.7
			c-0.2,0.4-0.6,0.8-1,1.1c-0.5,0.5-1.2,0.8-1.8,1c-0.6,0.2-1.3,0.2-1.9,0.1c-1.1-0.2-2.1-0.8-2.9-1.5c-0.7-0.6-1.3-1.2-1.9-1.9
			c-0.3-0.4-0.6-0.8-0.9-1.1c-0.3-0.4-0.5-0.7-0.8-1.1c-0.3-0.5-0.7-1-1-1.5c-0.3-0.5-0.6-1-0.8-1.5c-0.3-0.5-0.5-1-0.8-1.5
			c-0.4-0.7-0.7-1.5-1.1-2.3c-0.4-1-0.8-2-1.1-3c-0.2-0.8-0.4-1.5-0.7-2.3c-0.3-1.1-0.6-2.2-0.8-3.3c-0.2-0.8-0.3-1.6-0.3-2.4
			c0-0.6,0-1.2,0.2-1.8c0.1-0.4,0.3-0.7,0.5-1.1c0.4-0.8,0.9-1.6,1.5-2.3c0.2-0.2,0.4-0.3,0.5-0.6c0-0.1,0.2-0.1,0.2-0.1
			c0.7-0.6,1.4-1.1,2.1-1.7c0.2-0.2,0.5-0.4,0.7-0.6c0.1-0.1,0.2-0.2,0.3-0.3c0,0,0-0.1,0.1-0.1c0.2,0,0.3-0.1,0.4-0.3
			c0.9-0.7,1.7-1.3,2.6-2c0.6-0.4,1.2-0.9,1.8-1.3c0.6-0.4,1.1-0.8,1.7-1.2c0.2-0.1,0.4-0.3,0.6-0.4c1-0.9,2.1-1.7,3.1-2.5
			c1.1-0.9,2.3-1.8,3.5-2.7c0.2-0.2,0.4-0.4,0.7-0.5c0.7-0.5,1.3-1,2-1.4c0.3-0.2,0.6-0.4,0.9-0.6C394.9,34.6,395,34.6,395.1,34.4
			c-0.1-0.2-0.3-0.4-0.4-0.6c-0.1-0.2-0.4-0.3-0.6-0.3c-0.2,0-0.4,0.1-0.6,0.2c-0.7,0.5-1.3,1-2,1.5c-0.2,0.1-0.3,0.3-0.4,0.6
			c0,0.2,0,0.4,0.1,0.6c0.1,0.1,0.2,0.3,0.3,0.4"/>
		<path class="st5" d="M384.8,58.9c0.2,0.2,0.3,0.4,0.6,0.5c0.8,0.5,1.9,0.4,2.6-0.2c0.6-0.6,0.9-1.5,0.6-2.4
			c-0.3-0.7-1.2-1.3-1.8-1.4c-0.6,0-1.1,0.1-1.5,0.4c-0.4,0.2-0.6,0.6-0.8,1c-0.2,0.6-0.2,1.1,0.1,1.7
			C384.6,58.6,384.7,58.7,384.8,58.9C384.8,58.8,384.8,58.9,384.8,58.9"/>
		<path class="st5" d="M384,48.4c0.6-0.4,0.7-1.3,0.2-1.9c-0.4-0.5-1.2-0.7-1.9-0.2c-0.6,0.4-0.7,1.3-0.2,2
			C382.6,48.8,383.4,48.8,384,48.4"/>
		<path class="st5" d="M401.7,42.2c0.7-0.5,0.7-1.5,0.1-2.1c-0.4-0.4-0.9-0.4-1.4-0.3c-0.5,0.2-0.8,0.6-0.8,1.2c0,1,0.9,1.7,1.9,1.3
			C401.5,42.4,401.6,42.3,401.7,42.2"/>
		<path class="st5" d="M396.4,37.6c0.1,0,0.1,0.1,0.2,0.2c0.5,0.5,1.4,0.4,1.9-0.1c0.4-0.4,0.5-1.2,0.1-1.7
			c-0.4-0.6-1.2-0.7-1.7-0.4c-0.5,0.2-0.7,0.7-0.7,1.2c0,0.2,0.1,0.4,0.2,0.7C396.4,37.4,396.5,37.5,396.4,37.6"/>
		<path class="st5" d="M390.7,41.5c-0.3-0.3-0.6-0.5-1-0.5c-0.7,0-1.2,0.3-1.4,1c-0.2,0.7,0.1,1.4,0.8,1.7c0.7,0.2,1.4,0,1.7-0.7
			C391.1,42.5,391,42,390.7,41.5"/>
		<path class="st5" d="M400.3,36.4c-0.4,0.4-0.5,0.9-0.3,1.5c0.2,0.6,0.9,1,1.6,0.8c0.9-0.3,1.3-1.4,0.7-2.1
			c-0.5-0.6-1.2-0.7-1.8-0.2C400.4,36.4,400.3,36.4,400.3,36.4"/>
		<path class="st5" d="M397.3,46.6c-0.1,0.2-0.3,0.3-0.4,0.4c-0.5,0.7-0.6,1.3-0.3,2.1c0.2,0.5,0.5,0.8,1,1.1
			c0.6,0.3,1.1,0.3,1.8,0.1c0.6-0.2,1-0.6,1.2-1.1c0.3-0.6,0.3-1.2,0.1-1.8c-0.4-0.9-1-1.3-1.9-1.4c-0.5,0-0.9,0.1-1.3,0.4
			C397.4,46.5,397.3,46.6,397.3,46.6"/>
		<path class="st5" d="M374.5,53c-0.1,0.1-0.1,0.2,0,0.3c0.4,0.5,0.8,1,1.2,1.5c0.2,0.2,0.2,0.3-0.1,0.4c-0.5,0.4-1,0.8-1.5,1.2
			c-0.2,0.2-0.2,0.2-0.1,0.5c0.4,0.5,0.8,1,1.2,1.5c0.2,0.2,0.2,0.2,0.5,0.1c0.5-0.4,1-0.8,1.5-1.2c0.2-0.1,0.3-0.2,0.5,0.1
			c0.4,0.5,0.8,1,1.1,1.5c0.2,0.2,0.2,0.2,0.4,0.1c0.5-0.4,1.1-0.8,1.6-1.2c0.2-0.1,0.2-0.2,0.1-0.4c-0.4-0.5-0.8-1-1.1-1.5
			c-0.2-0.2-0.2-0.3,0.1-0.5c0.5-0.4,0.9-0.7,1.4-1.1c0.2-0.1,0.2-0.2,0.1-0.4c-0.4-0.5-0.8-1.1-1.2-1.6c-0.2-0.2-0.2-0.2-0.4-0.1
			c-0.5,0.4-1,0.7-1.4,1.1c-0.2,0.2-0.3,0.2-0.5-0.1c-0.4-0.5-0.8-1-1.1-1.5c-0.2-0.2-0.2-0.2-0.4-0.1
			C375.7,52.1,375.1,52.6,374.5,53"/>
		<path class="st5" d="M396.2,39.6c-0.5,0.6-0.5,1.2-0.1,1.7c0.4,0.5,1.1,0.7,1.7,0.4c0.8-0.4,1-1.6,0.3-2.2
			C397.5,39.1,396.8,39,396.2,39.6"/>
	</g>
	<path class="st5" d="M223.9,76.6c-1-0.6-2.3,0-3,0.9c-0.7,0.9-0.8,2.1-1,3.2c-0.2,1.7,0,3.7,1.4,4.6c0.8,0.5,1.7,0.5,2.6,0.5
		c1.2,0,2.5,0,3.7-0.4c1.2-0.4,2.2-1.4,2.4-2.6c0.3-2.3-2.5-4.5-1.7-6.7c-2-0.3-4.1-0.1-6,0.6"/>
	<path class="st5" d="M440.8,218.3c-0.4,0-0.8,0.1-1.2,0.1c-2.3,3.1-2.4,7.6-0.3,10.8c0.3,0.5,0.7,1,1.3,1.2c0.8,0.3,1.8,0,2.6-0.3
		c1.8-0.8,3.5-1.8,4.6-3.4c1.1-1.6,1.6-3.8,0.7-5.5c-1.4-2.7-5-3.1-8.1-3.2"/>
	<path class="st5" d="M474.6,30.6c-1.6,1.5-2.9,3.4-3.7,5.4c-0.3,0.8-0.6,1.8-0.1,2.6c0.6,0.9,1.9,1.1,2.9,1.1c1.2,0,2.5,0,3.7,0
		c1.3,0,2.8-0.1,3.6-1.1c1.3-1.6-0.1-3.8-1.4-5.3c-1.5-1.7-3.7-3.7-5.7-2.7"/>
	<path class="st5" d="M373.9,430.4c1.9,1.7,2.6,4.1,3.7,6.2c0.9,1.9,2,2.3,3.9,2.4c2.3,0.2,4.7,0.1,6.6,1.7c-0.2,1.6-1.3,2.4-2.2,3
		c-4.3,2.8-4.7,6.6-3,11c0.6,1.7,0.2,2.7-1.5,3.5c-2.5-1.4-5.1-2.8-7.7-4.2c-2.7,1.4-5.4,2.8-8.3,4.4c-2.7-3.5,0.6-6.7-0.1-9.8
		c-0.9-3.4-6.2-3.9-5.8-9.1c2.5,0.7,4.5-0.6,6.8-0.6c1.7,0,2.7-1,3.5-2.7c1.1-2.2,1.5-4.9,4-6.2"/>
	<path class="st5" d="M425.8,550.6c1.1,1,1.5,2.4,2.1,3.6c0.5,1.1,1.2,1.3,2.3,1.4c1.3,0.1,2.8,0.1,3.9,1c-0.1,1-0.8,1.4-1.3,1.7
		c-2.5,1.7-2.8,3.9-1.8,6.5c0.4,1,0.1,1.6-0.9,2.1c-1.5-0.8-3-1.6-4.6-2.5c-1.6,0.8-3.2,1.7-4.9,2.6c-1.6-2,0.4-3.9-0.1-5.8
		c-0.6-2-3.7-2.3-3.4-5.3c1.5,0.4,2.7-0.4,4-0.3c1,0,1.6-0.6,2.1-1.6c0.6-1.3,0.9-2.9,2.4-3.6"/>
	<g>
		<path class="st5" d="M466.6,494.3c7.6,7.9,13.1,18.3,20.6,26.3c-2.7,4.9,1.8,12.9,9.4,9.1c1-0.5,1.9-1.3,2.5-2.2
			c0.6-1,0.9-2.2,0.9-3.4c-0.1-1.9-1.3-3.6-2.9-4.7c-1.6-1-3.5-1.4-5.4-1.4c-0.5,0-1,0-1.4-0.3c-0.3-0.2-0.4-0.5-0.5-0.8
			c-3-6.8-9.3-11.6-13.4-17.8c-1.7-2.6-3-5.5-5.7-7.2L466.6,494.3z M492.3,521.6c1.3-0.2,2.6,1,2.6,2.3c0,1.3-1.3,2.4-2.6,2.4
			c-0.3,0-0.6-0.1-0.9-0.2c-0.8-0.4-1.1-1.4-1.1-2.4c0-0.6,0.1-1.3,0.5-1.7l-0.6,0.2c0-0.3,0.5-0.3,0.8-0.3
			C491.4,521.9,491.8,521.7,492.3,521.6z"/>
		<path class="st5" d="M455.3,494.4c-4-1.6-7.3-5.2-7.9-9.5c-0.2-1.3-0.1-2.7,0.1-4.1c0.8-4.8,3.6-9.6,8.2-11.1
			c4.3-1.4,8.9,0.4,12.8,2.5c0.9,0.5,1.8,1,2.5,1.7c1,1,1.7,2.3,2.2,3.7c1,2.9,1,6.1,0.2,9.1C471.3,494.3,462.3,497.1,455.3,494.4z"
			/>
		<path class="st5" d="M450.5,485.3c0.3,0.1,0.6,0,0.9,0c0.4-0.1,0.9-0.2,1.2-0.5c0.1-0.1,0.2-0.3,0.3-0.5c0.3-0.8,0.1-1.7-0.5-2.3
			c-0.3-0.3-0.6-0.4-1-0.4c-0.2,0-0.4,0.2-0.5,0.3c-0.5,0.4-1.1,0.9-1.2,1.5C449.7,484,450,485.1,450.5,485.3z"/>
		<path class="st5" d="M451,477.3c0.4,0.6,1.4,0.6,1.9,0.1c0.7-0.6,0.8-1.8,0.2-2.5c-0.1-0.1-0.3-0.3-0.4-0.3
			C451.2,474.1,450.2,476.2,451,477.3z"/>
		<path class="st5" d="M456.4,478.2c0.2,0.2,0.6,0.2,0.9,0.1c0.3-0.1,0.5-0.1,0.8-0.2c0.2-0.1,0.4-0.1,0.5-0.3
			c0.2-0.3,0.2-0.7,0.1-1c-0.1-0.3-0.2-0.6-0.4-0.7c-0.5-0.4-1.8-0.3-2.2,0.3C455.7,476.7,456.1,477.9,456.4,478.2z"/>
		<path class="st5" d="M456.6,484.9c-0.1,0.1-0.1,0.2-0.1,0.2c0,0.1,0,0.2,0.1,0.3c0.3,0.6,0.7,1.2,1.3,1.2c0.6,0,1.1-0.5,1.5-1.1
			c0.1-0.2,0.2-0.4,0.3-0.6c0.1-0.4-0.3-0.8-0.6-1.1c-0.3-0.2-0.6-0.4-1-0.4C457.3,483.7,457,484.4,456.6,484.9z"/>
		<path class="st5" d="M464.1,481.1c0.7-0.2,1.1-1,0.9-1.7c-0.3-0.9-1.9-1.4-2.6-0.5C461.8,479.8,463,481.3,464.1,481.1z"/>
		<path class="st5" d="M468.4,476.2c0.7-0.1,1.3-0.9,1.1-1.6c-0.2-1.2-1.8-1.5-2.5-0.6C466.3,475,467.3,476.4,468.4,476.2z"/>
		<path class="st5" d="M457.3,469.3c-0.4,0.7-0.1,1.8,0.6,2.2c0.8,0.4,1.8,0,2.1-0.8c0.2-0.5,0.1-1.1-0.2-1.5"/>
		<path class="st5" d="M459.6,493.7c0.3,0,0.6,0,0.9-0.1c0.5-0.1,1.1-0.4,1.1-0.9c0-0.3-0.1-0.6-0.3-0.8c-0.2-0.2-0.4-0.4-0.6-0.5
			c-0.1-0.1-0.3-0.2-0.4-0.2c-0.1,0-0.3,0-0.4,0.1c-0.5,0.2-1.4,0.5-1.5,1.1C458.4,493,459.1,493.7,459.6,493.7z"/>
		<path class="st5" d="M464.1,486.7c-0.4,0.3-0.6,0.9-0.4,1.3c0.2,0.4,0.7,0.7,1.2,0.7c0.5,0,0.9-0.3,1.2-0.7
			c0.1-0.1,0.1-0.2,0.1-0.3c0-0.1,0-0.2-0.1-0.3c-0.2-0.4-0.6-0.7-1.1-0.8s-1,0-1.3,0.3"/>
		<path class="st5" d="M470.1,492c-0.4,0.1-0.8,0.1-1.2,0c-0.1,0-0.2-0.1-0.3-0.2c-0.2-0.2-0.3-0.6-0.2-0.9c0.1-0.5,0.5-1,1-1.2
			c0.5-0.2,1.1-0.2,1.6,0.1c0.3,0.2,0.6,0.5,0.4,0.9"/>
		<path class="st5" d="M469.9,481.9c-0.5,0.1-0.8,0.9-0.5,1.3c0.3,0.5,0.9,0.8,1.4,0.6c0.5-0.2,0.9-0.7,0.8-1.3
			c0-0.1-0.1-0.3-0.1-0.4c-0.1-0.2-0.3-0.3-0.5-0.3c-0.3-0.1-0.6-0.2-0.8-0.1c-0.3,0.1-0.5,0.3-0.6,0.6"/>
	</g>
	<g id="ksgPFd_00000038410776067882570460000014138912786657519033_">
		<polygon class="st5" points="156.6,168.1 158.2,168.6 161.8,170.4 165.7,172.8 169.3,175.6 172.3,178.4 175.4,181.8 178.1,185.4 
			179.5,187.8 181.3,191 182.4,193.5 183,196.1 183.5,196.8 184.4,197.6 185.4,199 185.9,200.7 185.8,202.7 185,204.3 184.2,205.3 
			182.9,206.2 181.4,206.7 179.9,206.8 178.3,206.6 176.9,206.1 175.4,206.6 173.5,207.3 171.2,208.1 169.5,209 168.2,209.4 
			167.1,209.4 166.1,209.2 167.1,207.7 168.7,205.9 170.8,204.5 171.8,203.8 172.6,202.6 172.7,201.3 172.2,199.6 171.4,198.6 
			171,196.4 170.3,193 169.1,189.6 167.4,186.3 165.6,183.7 163.8,181.8 161.7,179.7 159,177.9 156.2,176.3 153.2,175.1 
			150.8,174.4 150.7,173.3 150.8,171.5 151.5,170 152.7,168.9 154.1,168.4 155.2,168.1 		"/>
		<polygon class="st5" points="150.2,174.5 145.7,177.2 139.6,182.2 135.6,185.9 134,187.8 132,189.8 130.7,190.7 129.5,191.8 
			122,199.6 120.8,202.5 119.5,204.2 117.9,205.6 115,207.3 113.7,208.5 113,209.7 112.7,211.1 113.2,212.7 114.4,213.6 
			115.6,214.1 116.1,214.7 115.8,216.6 115.3,217.9 114.5,219.1 113.3,220.5 112.8,221.4 112.6,222.1 113,222.7 114.2,223.2 
			115.7,222.3 116,223.2 115.6,225 115.3,227.3 115.4,228.7 116.5,230.1 118.2,230.5 119.8,230 120.9,228.8 121.8,226.9 122,224.1 
			121.7,220.7 120.7,217.3 120.7,214.1 122.3,214.6 125.3,215.1 127.4,214.6 130.3,213.1 132.7,214.1 135.8,214.3 138.6,213.2 
			140.9,211.4 142.6,210.9 145.3,211.3 148.9,211.2 151.9,210 153.3,210.3 156.6,210.1 158.2,209.3 158.9,210.4 159,212.4 
			158.2,215.3 157.9,217.9 158.5,219.2 159.3,220 160.9,220.5 162.2,220.1 163.5,218.9 164.4,217.3 164.5,214.9 164.6,212.5 
			166.1,209.2 167.5,206.9 171,204.3 172.2,203.3 172.8,201.4 172.2,199.6 171.3,198.2 170.5,193.8 169.2,189.9 167.5,186.7 
			165.6,183.7 162.5,180.3 158.3,177.3 154.9,175.6 150.8,174.4 		"/>
		<g>
			<path class="st5" d="M122,199.7c-0.3,0.6-0.7,1.2-0.9,1.9c-0.7,2.3-2.4,3.7-4.5,4.7c-1.4,0.7-2.7,1.4-3.5,2.9
				c-1,2.1-0.3,4.1,2,4.5c0.7,0.1,1.1,0.7,0.9,1.4c-0.3,1.7-0.9,3.3-2.2,4.6c-0.5,0.5-0.9,1.1-1.2,1.7c-0.2,0.5-0.1,1,0.4,1.3
				c0.5,0.3,1,0.6,1.5,0.2c0.3-0.2,0.6-0.5,1-0.7"/>
			<path class="st5" d="M122.3,211.2c-1.8,1.9-2,4.2-1.6,6.6c0.2,1.4,0.9,2.6,1,4.1c0.3,2.4,0.5,4.9-1,7.1c-0.7,1-1.7,1.5-2.8,1.5
				c-1.5,0.1-2.7-1.1-2.8-2.8c-0.1-0.9,0.2-1.7,0.4-2.5c0.2-0.9,0.5-1.8,0.1-2.8c-0.2-0.5,0.2-1.1,0.3-1.7c0.1-0.5,0.2-1,0.3-1.6"/>
			<path class="st5" d="M135.1,206.7c0.2,0.2,0.3,0.5,0.4,0.8c0.2,1.7,1.3,2.1,2.1,2c1.3-0.2,2-1.2,1.8-2.5
				c-0.2-1.2-0.6-2.3-1.3-3.3c-1.1-1.6-2.5-2.7-4.4-3.1c-0.9-0.2-1.8-0.2-2.6,0.2c-0.9,0.5-1.2,1.1-0.9,2.1c0.2,0.7,0.9,1.3,1.7,1.4
				c0.3,0,0.6,0,0.9,0.3c-0.3,0.8-1.2,1.1-1.8,1.6c-2,1.4-1.6,2.1-0.2,3.5c0.7,0.6,1.7,0.5,2.2-0.3c0.7-1,1.4-1.9,2.1-2.9"/>
			<path class="st5" d="M160.1,193.6c-0.8,0.6-1.5,1.3-2.3,1.9c-1.2,1-1.3,1.6-0.2,2.7c1.3,1.3,1.8,1.3,2.9-0.2
				c0.4-0.5,0.8-1,1.1-1.6c0.2-0.3,0.4-0.5,0.8-0.6c0.4,0.6,0.3,1.3,0.6,1.9c0.5,0.8,1.1,0.8,1.8,0.8c0.7-0.1,1.4-0.7,1.6-1.4
				c0.3-1.8-0.4-3.3-1.4-4.7c-1.1-1.5-2.5-2.5-4.4-2.9c-1-0.2-1.9-0.1-2.8,0.4c-0.8,0.5-0.6,1.3-0.6,2c0,0.6,0.9,1.2,1.5,1.3
				c0.4,0,0.7,0.1,1,0.4"/>
			<path class="st5" d="M129.6,191.9c0.3,0.1,0.5,0.3,0.8,0.3c2.1,0,2.8,2.3,2,4.2c-0.9,1.8-2.5,2.9-4.3,3.5
				c-1.9,0.6-3.9,0.6-5.8-0.2c-1.5-0.7-2.4-2.8-1.6-4.1c0.6-1,1.7-1.5,2.8-1.9c1.4-0.5,2.8-1,4.3-1.2
				C128.3,192.4,128.8,192,129.6,191.9"/>
			<g id="XMLID_00000129890756036196927490000007318226992793012921_">
				<g>
					<path class="st6" d="M142.7,185.3c0.7,1.2,1.3,2.4,1.3,3.8c0,1.3-0.7,2-2,2.1c-0.9,0-1.8-0.8-1.9-1.9c0-0.3,0-0.7-0.3-0.9
						c-0.3,0-0.4,0.2-0.5,0.3c-0.6,0.8-1.2,1.6-1.8,2.4c-0.6,0.8-1.4,0.8-2.1,0.2c-1.7-1.5-1.7-2.1,0.2-3.5c0.6-0.5,1.3-0.9,1.8-1.5
						c-0.4-0.6-1-0.3-1.5-0.5c-0.6-0.3-1-0.7-1.1-1.2c-0.3-1.3,0.4-2.3,1.8-2.4c0.8,0,2,0,2.8,0.3
						C140.6,183.3,141.9,184,142.7,185.3z"/>
				</g>
				<g>
					<path class="st7" d="M139.3,182.5c3.2-3,6.4-5.7,10.3-7.7c0.4-0.2,0.8-0.3,1.2-0.3c0.7,0,1.4,0.3,2.1,0.5
						c3.8,1.3,7.2,3.2,10.1,5.9c3.7,3.5,6.1,7.7,7.4,12.6c0.4,1.4,0.6,2.9,0.9,4.3c0.1,0.8,0.7,1.5,1,2.2c0.9,1.8,0.5,3.4-1.2,4.3
						c-1.6,0.9-3,2-4.1,3.4c-0.3,0.5-0.6,0.9-0.9,1.4c-1.1,1.7-1.9,3.5-1.6,5.7c0.2,1.7-0.1,3.4-1.5,4.7c-1.1,1-2.3,1.2-3.6,0.5
						c-1-0.6-1.6-1.6-1.4-3.2c0.1-1.4,0.7-2.7,1-4.1c0.3-1.2,0.1-2.3-0.6-3.4c-0.7-1.1-1.3-2.2-2.4-2.9"/>
					<path class="st7" d="M139.3,182.5c1.2,0.8,2.6,1.5,3.4,2.8c0.7,1.2,1.3,2.4,1.3,3.8c0,1.3-0.7,2-2,2.1c-0.9,0-1.8-0.8-1.9-1.9
						c0-0.3,0-0.7-0.3-0.9c-0.3,0-0.4,0.2-0.5,0.3c-0.6,0.8-1.2,1.6-1.8,2.4c-0.6,0.8-1.4,0.8-2.1,0.2c-1.7-1.5-1.7-2.1,0.2-3.5
						c0.6-0.5,1.3-0.9,1.8-1.5c-0.4-0.6-1-0.3-1.5-0.5c-0.6-0.3-1-0.7-1.1-1.2c-0.3-1.3,0.4-2.3,1.8-2.4
						C137.4,182.1,138.5,182.2,139.3,182.5z"/>
					<path class="st7" d="M166.2,209.2c1.1,0.4,2.2,0.3,3.2-0.2c2.2-0.9,5.1-2.5,7.5-2.9h0.3h0.1"/>
					<path class="st7" d="M174.8,201.5c0,2.7,1.1,4.1,2.4,4.7c1.7,0.9,3.8,0.6,4.6,0.4c2.5-0.6,4-3.1,4-5.1
						c-0.1-0.7-0.1-1.4-0.3-2.1c-0.3-0.8-0.7-1.6-1.5-2.2c-0.6-0.5-1-1.1-1.1-1.9c-0.2-1.4-0.9-2.8-1.5-4.1
						c-2.4-4.9-5.5-9.3-9.3-13.1c-4.1-4.1-8.8-7.4-14.2-9.7c-2.3-1-5.3-0.3-6.6,1.7c-0.8,1.2-0.9,2.6-0.6,4.1"/>
				</g>
			</g>
			<path class="st5" d="M158.2,209.3c-1.9,1-4,1.4-6.1,0.8c-0.4-0.1-0.6,0-0.9,0.2c-1.6,0.7-3.3,1.2-5.1,1.1c-0.9,0-1.7-0.3-2.5-0.4
				c-1-0.2-1.9-0.1-2.8,0.5c-0.5,0.4-1,0.8-1.5,1.2c-2.6,2-5.4,2.1-8.3,0.8c-0.9-0.4-1.8-0.9-2.4-1.7 M120.9,214.2
				c0.2,0,0.5,0.2,0.7,0.2c3,1,5.9,0.8,8.5-1.2"/>
			<path class="st5" d="M135.6,185.9c-1.4,1.5-2.7,3.3-4.5,4.5c-0.6,0.4-1.3,0.7-1.6,1.4"/>
			<path class="st5" d="M182.9,196.2c-0.6,0.1-1-0.2-1.6-0.3c-0.3-0.1-0.6-0.1-1,0"/>
			<path class="st5" d="M153.8,208c-0.5,0.8-1.3,1.2-1.7,2"/>
			<path class="st5" d="M154.1,180.1c-1.5,0.2-3.1,0.3-4.6,0.8c-0.7,0.2-1.3,0.4-1.9,0.7c-1.9,1.1-2.1,3.3-0.3,4.7
				c3,2.5,8.5,1.6,10.6-1.4c0.7-1,1.1-2.1,0.5-3.4c-0.6-1.3-1.8-1.3-2.9-1.5C155.1,180.1,154.6,180.1,154.1,180.1"/>
			<path class="st5" d="M149.3,198.3c-1.6,0.3-3.1,0.5-4.7,1c-1,0.3-2,0.7-2.9,1.4c-1.2,0.9-1.1,2.6-0.2,3.6c1.3,1.6,3.2,2,5.1,1.9
				c2.2-0.2,4.2-0.9,5.7-2.7c0.9-1,1.3-2.2,0.9-3.6c-0.4-1.2-1.5-1.5-2.6-1.6C150.3,198.3,149.9,198.3,149.3,198.3"/>
		</g>
	</g>
</g>
<g id="Layer_5">
</g>
</svg>
