<svg id="Layer_1" data-name="Layer 1" xmlns="http://www.w3.org/2000/svg" viewBox="0 0 600 600">
  <path d="M190,321.57l0,0v0h0l0,0,.07.07,0,.05,0,.06,0,.05,0,.06,0,.06,0,.06v6.86l0,.07,0,.06,0,.06,0,0,0,.05h0l0,0h0l0,.05,0,0,0,0-.05.05,0,0h0l0,0-.05,0-.06,0h0l0,0h-.12l-.13,0h-8.5l-.13,0h-.07l-.05,0,0,0h0l-.06,0-.05,0,0,0h0l0,0-.05-.05,0,0-.05,0,0,0,0-.07,0-.05,0,0,0-.06,0-.06,0-.07v-6.73l0-.06v-.07l0-.06,0-.06,0-.06,0-.05,0-.06,0-.05,0,0,.05-.05h0v0l0,0,.05,0,0,0,.06,0,.05,0,.06,0,.07,0,.05,0,.07,0h8.76l.06,0h.06l.07,0,.06,0,.05,0,.06,0,0,0,.05,0M203,277.86v0l.63.84.58.9.51,1,.45,1,.38,1.06.21.77.09.35.23,1.15h0l.05.36.11.87.08,1.74-.1,1.67-.27,1.61-.42,1.54L205,294.2l-.39.83-.27.58-.77,1.37-.86,1.31-.93,1.26-1,1.21,0,0-1,1.14-1.05,1.14-.31.34-.63.66-.06.06-.05.05-1,1.07-.35.36-.67.69-.32.33-.66.7-.93,1-.18.21-.66.78-.16.2-.61.78-.66,1-.55,1-.41,1-.26,1-.1,1v4.14l0,0h0v0l0,0,0,0v0l0,0,0,0,0,0,0,0-.07.05-.08,0h0l0,0h0l-.05,0h-9l-.07,0h-.06l0,0,0,0,0,0-.07-.05h0l0,0,0,0h0l0,0,0,0,0,0,0,0,0,0,0,0v-4.14l-.1-1-.27-1-.41-1-.44-.78-.1-.18-.31-.45-.34-.5v0l-.77-1-.66-.76-.2-.23,0-.05-.88-.95-.33-.35-.33-.36-.14-.13-.18-.2-.06-.06-1-1-1-1.07-1.06-1.11-.76-.83-.28-.31,0,0-.09-.11-.46-.52-.42-.49,0,0-1-1.22-.93-1.26-.86-1.31-.77-1.36-.27-.58-.4-.84-.54-1.48-.42-1.54-.27-1.6-.1-1.68.08-1.74.12-.87,0-.35.24-1.17.09-.34.21-.78.38-1.06.44-1,.52-1,.58-.9.64-.86.2-.23.08-.09.42-.47,0,0,.74-.73.82-.69.88-.65.93-.59,1-.54,1-.49,1.08-.44.83-.28.3-.1,1.18-.35,1.22-.28.53-.1.73-.13,1.3-.18,1.34-.13,1.38-.08,1.41,0h0l2.21,0H187l1.37.08,1.35.13,1.3.18,1.27.23,1.22.29,1.17.33,1.14.39.48.19.6.25,1,.49.5.27.49.27.93.59.88.64.82.7.76.75h0l.42.48Z" style="fill: #fff;opacity: 0.5"/>
  <g style="opacity: 0.5">
    <path d="M284,221.6l.74,1.21.13.22.79,1.46.7,1.48.61,1.49.5,1.5.41,1.49.29,1.48.18,1.46.06,1.43,0,.67,0,.64-.07.61-.1.59-.12.55-.15.52-.07.18-.11.31-.21.47-.23.44-.25.42-.27.39-.3.37-.32.34-.35.33-.36.3-.39.27-.4.26-.43.24-.45.22h0l-.45.2-.48.18-.5.17-.52.15-.41.1-.12,0,.31,1.59.13,1.09,0,.36,0,1.33-.1,1.21-.22,1.08-.34,1-.44.88-.55.77-.64.68-.72.59h0l-.8.51-.87.44-.94.37-.3.09-.69.21-1,.25-1.07.2-1.12.15-1.13.11-1.16.08-1.16.05-1.17,0-1.16,0h-4.55l-1.16,0h-.37l-.8,0-1.16-.05-1.16-.08-1.13-.11-1.11-.15-1.08-.2-1-.25-1-.3-.93-.37-.87-.44-.81-.51h0l-.72-.59-.64-.68-.54-.77-.45-.88-.33-1-.23-1.08-.09-1.21,0-1.33.17-1.45.27-1.37,0-.1,0-.06v-.06l-.54-.14-.51-.15-.5-.17-.49-.18-.17-.08-.29-.13-.44-.22-.43-.24-.41-.26-.38-.27-.37-.3-.34-.33-.32-.34-.3-.37-.28-.39-.25-.42-.23-.44-.2-.47-.12-.31-.06-.18-.15-.52-.13-.55-.1-.59-.07-.61,0-.64,0-.67.07-1.43.18-1.46.24-1.24.05-.24.4-1.49.5-1.5.61-1.49.7-1.48.79-1.46.14-.22.74-1.21.95-1.4,1-1.36,1.1-1.31,1.17-1.24,1.23-1.18,1.28-1.11,1.34-1,1.39-.93,1.42-.83,1.46-.73,1.5-.61,1.53-.49.88-.21.66-.15,1.57-.22,1.58-.08,1.58.08L267,209l1.55.36,1.52.49,1.5.61,1.46.73,1.43.83,1.37.92h0l1.34,1,1.28,1.11,1.23,1.18,1.17,1.24,1.1,1.31,1,1.36Z" style="fill: #fff"/>
  </g>
  <g style="opacity: 0.5">
    <path d="M320.55,38.45l.12.13.1.14.05.1,0,.07.07.19.06.2.06.21,0,.22,0,.24,0,.23V41.5l0,.18-1.18,12.13h0v.12l.76-.14.76-.1.77-.06.77,0,.77,0,.78.06.78.1.77.14.77.17.77.21.76.25.76.29.24.11.5.22.73.36.73.4.7.44.7.47.67.51.65.53h0l.64.58.61.61.6.64.57.68.54.72,7.84,10.78.51.74.47.75.43.77.39.77.35.79.32.79.11.34.16.46.24.8.19.81.16.81.12.81.05.54,0,.27,0,.81V83l0,.79-.07.79-.11.78-.15.77-.18.76-.22.74-.26.73-.3.71-.33.69-.37.68h0l1.61.35,8.73,1.93,1.66.36.17,0,.19.05.2,0,.21.07.15,0,.07,0,.22.08.21.08.22.1.21.1.2.11.19.11.16.11h0l.15.13.14.14.1.14.08.15,0,.16,0,.16,0,.17-.07.17-.1.19-.15.18-.18.17,0,0-.25.2-10.31,7.49-1.45,1h0l-11.82,8.59-.06,0-.21.14-.06,0-.19.1-.23.09-.17,0h-.22l-.17,0-.15-.06-.13-.1-.12-.12-.1-.15-.09-.16-.07-.19-.06-.2-.06-.21,0-.23,0-.23v0l0-.2,0-.24v-1.08l0-.18.28-2.87.42-4.34.33-3.38.15-1.55v-.12l-.76.14-.76.1-.77.06-.77,0-.77,0h-.12l-.66,0-.78-.1-.77-.14-.78-.17-.76-.22-.76-.25-.76-.29-.74-.32-.74-.37-.72-.39-.7-.44-.7-.47-.39-.29-.28-.22-.66-.54-.64-.58-.61-.61-.6-.65-.57-.68-.54-.71L311.13,80l-.51-.73-.47-.76-.43-.76-.39-.78-.36-.78v0l-.31-.77-.27-.8-.24-.81L308,73l-.16-.81-.12-.82-.08-.8,0-.81v-.8l0-.79.07-.79.11-.78.15-.77.15-.65,0-.11.22-.74.26-.73.29-.71.34-.7.37-.67-.14,0-11.9-2.62-.17,0-.19-.05-.2-.06-.21-.06-.22-.07-.22-.08-.22-.09-.21-.09-.21-.1-.2-.11L295.3,58l-.17-.13L295,57.7l-.06-.06-.07-.07-.11-.14-.08-.16,0-.15,0-.16,0-.17.06-.18.11-.18.15-.19.2-.19.25-.2,11.76-8.55h0l1.52-1.11L319,38.71l.27-.18.25-.13.23-.09.2,0h.18l.17,0,.15.07Z" style="fill: #fff"/>
  </g>
  <g style="opacity: 0.5">
    <path d="M157.65,119.29l.31-.05.32,0,.31,0,.32.05.31.08.29.11.17.08.12.06.27.18.25.21.22.24.21.27.17.3.14.34.11.36.61,2.55.32,1.3.34,1.38.71,2.81.42,1.61.33,1.31.78,3,.81,3.07.31,1.14.52,2,.84,3.16,1.69,6.34.84,3.15,0,.09.79,3,.79,3.07.77,3,.72,2.91.68,2.8.62,2.68.56,2.53.5,2.38.16.83.27,1.38.34,2,.25,1.8.16,1.58.05,1.33-.05,1.6-.15,1.53-.06.38-.18,1.07-.34,1.37-.41,1.29-.5,1.21-.57,1.14-.63,1.07-.7,1-.75.93-.82.85-.85.78-.9.71-.28.2-.65.45-1,.58-1,.51-1,.45-.48.18-.55.21-1,.32-1,.26-1.05.21-1,.14-1,.08-1,0-1,0-1-.08-1-.14-1.05-.21-.67-.16-.38-.1-1-.32-1-.39-1-.45-1-.51-1-.58-.65-.45-.29-.2-.89-.71-.86-.78-.81-.85-.75-.93-.71-1-.63-1.07-.57-1.14-.49-1.21-.42-1.29-.33-1.37-.18-1.07-.07-.38-.15-1.53,0-1.6.06-1.33.15-1.58.26-1.8.34-2,.26-1.38.16-.83.5-2.37.56-2.54.63-2.68.68-2.8.72-2.91.76-3,.79-3.07.8-3,0-.09.83-3.15,1.69-6.34.84-3.16.41-1.54.42-1.58.81-3.07.78-3,.34-1.3.41-1.61.06-.21.66-2.6.34-1.38.32-1.31.6-2.54.11-.37h0l.13-.32.18-.31.2-.27.23-.24.25-.2.27-.18.11-.06.17-.08.3-.11Z" style="fill: #fff"/>
  </g>
  <g style="opacity: 0.5">
    <path d="M278.78,396.67l-20-20,20-20.05,20,20.05-20,20m-14-65.74,14-14,14,14-14,14Z" style="fill: #fff"/>
  </g>
  <g style="opacity: 0.5">
    <path d="M362.24,194.31h14.17v42.52H362.24V194.31m21.26,91.77H355.15V243.56H383.5Z" style="fill: #fff"/>
  </g>
  <g style="opacity: 0.5">
    <path d="M525.49,34.84l.07,0,.06,0,.06,0,.05.06,0,.07,0,.06,0,.07,0,.08,0,.07,0,.1,1.32,5.39,2.27,9.26.29,1.17.08.37,0,.38v.38l0,.37,0,.37-.08.31v.06l-.11.35-.15.35-.17.34-.21.32-.23.3-.25.28-.28.26-.23.17-.06.06-.32.2-.33.18-.34.15-.36.12-.36.09-.38.06h-.08l-.07,0-.07,0-.06,0-.07,0-.06,0-.06,0,0,.05h0l0,.05-.05.06,0,.06,0,.06,0,.07,0,.07v.37l0,.07.07.32.76,3.2L529,73.55l.07.36,0,.36v.35l0,.35-.06.35-.09.33v0l-.12.33-.15.33-.18.31-.21.29-.23.28-.26.25-.28.23-.29.19-.15.09-.16.09-.33.14-.33.12-.35.08-.35.06-.36,0h-1.23l-.07,0h-.07l-.07,0-.07,0-.07,0-.06,0-.06,0-.05.05-.06.06,0,.06,0,.06,0,.07,0,.07,0,.07v.37l1.13,6.79L526,96.48v.23l0,.56-.12.74-.25.68-.38.6-.26.28-.23.25-.47.34-.1.07-.65.3-.71.17-.75,0-.77-.14-8.84-2.64-2.82-.84-1.41-.42-.49-.15h-.11l-.1,0-.16,0-.26-.05h-.34l-.18,0-.25.07-.24.11-.22.14,0,0-.15.13-.17.21-.14.24-1,2-.3.51-.37.44-.23.21-.19.17-.47.29-.51.23-.22,0-.17,0-.15,0-.56.06-.56,0-.56-.12-.55-.21-1.22-.59-9-4.35-.51-.3-.44-.36-.36-.42h0l-.3-.47-.07-.15-.15-.36-.15-.54-.05-.56,0-.56.12-.56.21-.55,1-2,.11-.25.05-.27,0-.2v-.06l0-.26-.07-.25-.1-.24-.13-.23,0,0,0,0-.12-.14-.2-.18-.23-.14h-.1l-1.69-1.19-4.82-3.39-5.07-3.56-.59-.52-.44-.6L475,77l-.17-.69,0-.71.05-.34.06-.37.24-.67.38-.62L476,73l.64-.45,9-5,3.86-2.14,2.17-1.19.06,0,.06,0,.05,0h0l.05,0L492,64l0-.07,0-.06,0-.07,0-.07,0-.07v-.29h0V63.3l0-.07,0-.07,0-.07,0-.06,0-.07-.46-.61-.23-.3-.06-.08-.15-.21-.17-.32-.15-.32-.12-.34-.09-.34-.05-.35,0-.36v-.35l0-.36.07-.35.1-.35.14-.33.16-.32.18-.3v0l.21-.27.23-.26.27-.24.28-.22.3-.19.32-.17,1.72-.8,9.63-4.47,3.29-1.53.07,0,0,0,0,0,.06,0,.05-.05.05-.06,0,0,0-.06,0-.07,0-.07,0-.07,0-.07v-.37l0-.07,0-.07,0,0v0l0-.06-.05-.09-.13-.24-.16-.35-.12-.35-.1-.37-.07-.36,0-.38v-.37l0-.38.06-.37.1-.37.12-.36.16-.34.18-.33L508,43l0,0,.2-.25.26-.28.28-.24.31-.23.32-.2.33-.17,1.1-.5,4.41-2,9.32-4.24.09,0,.08,0,.07,0h.32l.08,0h.07l.08,0h0l0,0Z" style="fill: #fff"/>
  </g>
  <g style="opacity: 0.5">
    <path d="M455.41,136.17l.17.15.17.15.33.33.31.34.3.36.29.38.27.4.26.42.14.25.11.19.24.47.21.48.13.29.13.3.12.3.23.6.05.12.07.18.11.31.08.24,0,.06.11.31.1.3.1.31.1.3.19.62.06.17,0,.14.09.3.09.31.09.31.07.27,0,0,.08.31.09.31.08.31.14.52,0,.11.12.47.13.48.13.48.14.47.14.48.14.47.15.47.14.47.16.47.31.94.11.31.05.15.17.47.16.47.17.46.18.46.18.46.17.46,0,.06.16.4.19.46.19.46.19.45.15.36,0,.09.2.45.24.53.25.53.26.51.26.51.28.5.28.5.29.49.3.48.31.48.32.46.23.32.1.14.34.45.35.44.37.43.37.42.38.42.4.4.41.4.42.39.44.37.44.37.46.35.48.35.26.18.23.15.16.11.3.21,0,0,.24.18.08.05.16.12.16.12.32.25.16.12.15.13.15.13h0l.15.13.31.26.45.39.11.1,0,0,.15.13.15.14.43.41.14.14.13.15.11.15.08.13,0,0,.08.17.07.17.05.17,0,.17,0,.18v.52h0l0,.17,0,.17-.06.17-.07.16-.08.16-.1.16-.1.15-.12.15-.13.14-.14.13-.07.05-.09.07-.09.06-.08.06-.25.15-.05,0-.08,0,0,0-.05,0,0,0,0,0-.05,0,0,0,0,0h0l0,0,0,0,0,0h-.05l0,0-.05,0,0,0-.05,0-.37.18-.09,0-.29.14-.09,0-.29.13-.39.16-.38.16-.32.12-.06,0-.39.14-.39.14-.29.1-.1,0-.4.13-.39.13-.4.12-.39.12-.4.11-.4.11-.4.11-.4.1-.4.1-.4.1-.42.1-.39.09-.32.08-.08,0-.41.09-.4.08-.25.06h0l-.53.11-.27.06-.17,0-.1,0-.8.16-.27,0-.27.05-.8.15-.27,0-.34.07-.46.08-.27.06-.7.13-.11,0-.27,0-.27.05-.26.05-.1,0h0l-.07,0-.08,0-.08,0-.08,0-.07,0h0l-.06,0-.06,0-.07,0-.05,0-.05.05,0,.06,0,.06,0,0,0,0,0,.06,0,.07,0,.07h0l0,.08,0,.08,0,.08,0,.17v.69l0,.17,0,.32-.07.48-.11.47-.13.46-.16.46-.18.44-.22.42-.23.42-.26.4-.06.07-.23.31-.3.37-.32.34-.35.33-.36.31-.38.3-.4.26-.41.25-.18.09-.25.13-.44.19-.46.18-.47.14-.48.12-.49.09-.49.05-.5,0h-.49l-.48,0-.48-.06-.28-.05-.2,0-.46-.11-.46-.15-.45-.17-.43-.19-.43-.22-.41-.24-.36-.25,0,0-.38-.28-.36-.31-.35-.33-.32-.35-.3-.37-.29-.39-.26-.41-.23-.42-.21-.44-.12-.3-.06-.14v0l-.16-.47,0-.09,0-.09,0-.08,0-.08,0-.07,0-.07-.09-.13-.05,0-.05-.05,0,0,0,0-.06,0-.06,0,0,0,0,0-.07,0-.07,0-.07,0h-.08l-.08,0h-.44l-.28,0-.27,0h-.08l-.19,0-.54,0-.28,0-.44.05-.37,0-.27,0-.27,0-.55,0-.27,0-.27,0-.27,0-.62.05-.2,0-.27,0-.62.05-.2,0-.27,0-.41,0-.42,0-.41,0h-.1l-.31,0-.42,0-.41,0-.42,0h-2.89l-.42,0h-.1l-.31,0-.41,0h-.41l-.42,0-.41,0-.41-.05-.42,0-.41-.06h0l-.38-.06H424l-.09,0h-.05l-.1,0h-.14l-.1,0h-.05l-.16,0-.12,0-.2-.06-.11,0-.07,0-.17-.09-.17-.09-.16-.11-.14-.11L422,183l-.12-.13-.11-.14-.11-.14-.08-.16-.08-.14h0l-.07-.17-.05-.16,0-.18,0-.17,0-.18v-.36l0-.18,0,0,0-.14.06-.18.08-.18.1-.18.22-.37.08-.15.1-.17.11-.17,0-.05.07-.12.32-.51.22-.33.11-.17L423,178l.11-.16,0,0,.09-.14.24-.32.11-.16h0l.11-.16.13-.16.06-.08.06-.08.12-.15.13-.16.12-.15.18-.22.2-.24.36-.47.34-.47.32-.48.31-.48.3-.49.28-.5.26-.5.25-.51.24-.51.22-.52.22-.52.19-.53.06-.16.13-.37.17-.54.17-.54.15-.55.14-.55.13-.55.12-.56.11-.57.09-.57.1-.57.08-.57v-.13l0-.36.06-.49.05-.49,0-.28,0-.21.05-.5,0-.49,0-.49,0-.49v-.05l0-.45,0-.49,0-.49,0-.5v-.49l0-.49v-.5l0-.49v-3.46l0-.49v-.11l0-.49v-3.91l0-.32v-.32l0-.32v-.32l0-.2v-.13l.05-.64,0-.32,0-.32,0-.32.07-.53.09-.5,0-.22.06-.28.13-.47.15-.47.17-.44.18-.44.21-.41.22-.41.12-.2.12-.19.25-.37.13-.16.15-.2.29-.34.32-.33.32-.32.35-.3.37-.29.38-.27.4-.26.42-.24.42-.23h0l.46-.21.46-.21.49-.19.13,0,.12,0,.1,0h0l.09-.05,0,0,0,0,.08-.05.08,0,.07-.05.06-.05h0l.05-.05.05-.06,0-.06,0-.07,0-.07,0-.07,0-.08,0-.09v-1.41l0-.28v0l0-.3.06-.3.08-.29.1-.28.12-.28.13-.26.15-.26.17-.25.18-.24.19-.23.21-.21.08-.07.14-.13.23-.19.25-.17.25-.16.27-.14.27-.12.29-.11.3-.09.3-.07.31-.05.14,0,.17,0,.31,0h.31l.3,0,.3,0,.3.06.29.08.28.1.28.11.27.13.22.13,0,0,.25.16.24.18.23.19.22.2.2.22.19.23.18.25.16.25.15.27.13.28v0l.1.26.09.3.07.3,0,.14,0,.12,0,.12,0,.11,0,.06v0l0,.09,0,.08,0,.08,0,.07.05.07.05.06.05.05.06,0,.07,0,0,0h0l.08,0,.08,0,.09,0,.09,0h.1l.11,0h0l.13,0h.23l.52.05.51.06.5.08h0l.47.1.47.11.46.14.44.15.43.17.42.19.41.21.39.23.38.25.37.26.17.14Z" style="fill: #fff"/>
  </g>
  <g style="opacity: 0.5">
    <path d="M487.07,240.61V241l0,.11-1.5,7.41-.25,1.21-.1.5,1.83.86,1.48,1.16.52.66.64.8.84,1.72.56,2,.27,2.18,0,2.37-.22,2.53-.11.68-.32,2-.64,2.79-.83,2.88-1,2.94-1.15,3-1.28,3-1.4,3-1.28,2.53-.21.41-1.58,2.89-1.64,2.79L478,296.07l-1.21,1.79-.51.75-.64.89-1.09,1.5L473,303l-.15.19-1.69,2-.33.35-1.18,1.24-.15.16,0,0-.11.1,0,0h0l0,0,0,0,0,0,0,0-.06,0,0,0,0,0-.06,0,0,0,0,0h0l0,0,0,0h-.06l0,0-.08,0-.08,0-.17.06-.09,0-.08,0-.09,0-.1,0H468l-.09,0h-.72l-.18,0h-.08l-.09,0-.18-.05h-.06l-.06,0h-.07l-.11,0h0l-.06,0-.06,0-.06,0-.05,0-.06,0-.06,0-.06,0h0l0,0-.06,0,0,0h0l0,0-.05,0-.05,0,0,0,0,0-.05-.05,0,0-.05-.05-.09-.09,0-.05h0l0,0,0,0,0,0,0,0,0,0,0,0,0,0,0,0,0,0,0,0,0-.07-.1-.16,0,0v0h0v0l0,0,0-.07v0l0,0,0-.11,0-.1-.6-1.6-.16-.44-.6-1.89-.19-.6-.73-2.7-.66-2.87-.59-3-.5-3.14-.42-3.21-.33-3.27,0-.46-.19-2.84-.13-3.29v-3.26l.11-3.19.22-3.1.36-3,.5-2.82.47-2,.17-.68.79-2.42.94-2.17,1.11-1.9,1.28-1.59,1.45-1.25.9-.49.73-.41,1.82-.49,2-.07.1-.51.25-1.22,1.5-7.39,0-.11,0-.1,0-.11,0-.09v0l0-.08.06-.09.06-.08.07-.08.07-.08.08-.07.08-.06,0,0,.07,0,.08-.06.1-.05.09,0,.1,0,.1,0,.1,0,.11,0h.43l.11,0,.24.05,5.69,1.15,2.84.58.83.17.11,0,.1,0,.1,0,.1,0,.09.05.07,0h0l.09.06.07.07.08.07.07.08.06.08.07.08.05.09.05.09,0,.09h0l0,.1,0,.1,0,.1Z" style="fill: #fff"/>
  </g>
  <g style="opacity: 0.5">
    <path d="M387.6,335.57v0l.56,2.82.06.28,1.23,6.19,4.94,24.8,1,4.72.26,1.35,0,.09v.09l0,.18v.27h0v.08l0,.09v.09l0,.09v.09l0,.08,0,0v0l0,.08,0,.08-.05.08,0,.06v0l0,.08-.05.07-.06.08-.06.06h0l-.06.06-.06.07-.07.06-.07.06-.06.05h0l-.07.06-.08.05-.08,0-.08.05-.08,0-.06,0h0l-.08,0-.09,0-.08,0-.09,0-.09,0-.09,0h-.72l-.09,0-4.23-.9-5.67-1.21-11.36-2.42-11.36-2.41-.47-.11-.09,0-.09,0-.08,0-.09,0-.08,0h0l-.05,0-.08-.05-.07,0-.08,0-.08-.05-.07-.06h0l-.07-.05-.06-.06-.07-.06-.06-.07-.06-.07-.06-.07-.05-.07-.05-.08,0-.07-.05-.08h0l0-.07,0-.09,0-.08,0-.09,0-.09,0-.08,0-.1,0-.08V369l0-.13v-.05l0-.09v-.09l0-.09,0,0v0h0l0-.09,0,0,0,0,0-.08.09-.17,0,0,0,0,.05-.07,3.58-5.05,14.6-20.63,2.47-3.49,1.18-1.67,1.84-2.59.08-.12.1-.12.1-.11.1-.1.11-.1.11-.09.12-.08.12-.08.12-.08.09,0,0,0,.13-.07.13-.05.14-.05.13-.05.14,0,.14,0,.14,0,.15,0H385l.15,0,.14,0,.15,0,.14,0,.14.05.13.06.14.06.12.06.12.07h0l.12.07.12.09.11.09.11.09.1.1.1.11.09.11.09.11.08.12.08.12.07.12.07.13,0,.1v0l.06.13,0,.14,0,.15,0,.14m-12.73,50.7,0,0,0,0,.05,0,0,0,.06.07.07.07.06.07.06.07.06.08.05.08,0,.09.05.08,0,.09,0,.09h0l0,.1,0,.09,0,.1.1.49.31,1.55,2.47,12.4,1.23,6.19,1.21,6.07,0,.08v.05h0v.18h0v.24h0v.12l0,.11,0,.06,0,.05,0,.06,0,.06,0,.05-.06.1-.08.1-.08.09-.08.09-.05,0h0l0,0-.05,0-.05,0-.09.05-.07,0,0,0-.06,0h0l-.06,0h0l-.11,0h0l-.12,0h-.42l-.19,0-1.42-.3-2.84-.6-11.35-2.42-5.68-1.21-.7-.15-.06,0,0,0-.06,0-.06,0-.05,0-.06,0-.05,0-.1-.07-.09-.07-.09-.09,0,0,0,0-.11-.15,0,0,0-.05,0-.05h0l0-.05,0-.12,0-.12,0-.12,0-.12v-.23h0l0-.11v-.12l0-.06,0-.06,0-.05,0-.12,0-.05,0,0,0-.06h0l0-.05,11.41-16.12,3.16-4.47,1.09-1.53.11-.16.07-.08.06-.08.07-.07h0l.06-.06.07-.07.08-.06.08,0,.08-.06.08-.05.08,0,.08,0h0l.09,0,.09,0h0l.08,0h.09l.1,0h.57l.1,0,.1,0,.1,0,.09,0,.06,0h0l.09,0,.09,0,.09,0,.08.05.08,0Z" style="fill: #fff"/>
  </g>
  <g style="opacity: 0.5">
    <path d="M335.85,473.93l.19,1,0,.23.11,1.25v1.25l-.13,1.24-.26,1.23-.37,1.19-.48,1.16-.6,1.1-.7,1-.8,1-.07.07-.27.26-.45.45-.1.1-.11.09-.64.51,0,0h0l.23.05h0l.41.13.08,0,1.11.35,1.53.64,1.47.8,1.38.94,1.29,1.06,1.17,1.19,1.05,1.3.92,1.39.78,1.48.38.94.25.6.47,1.6.32,1.64.15,1.66v1.67l-.17,1.66-.34,1.64-.38,1.22-.11.37-.65,1.54-.79,1.47-.42.61-.52.77-.44.53-.51.62-.12.13-.3.3-.3.3-.16.16h0l.06,0,.05,0,.21.08,1.72.73,1.83,1,1,.7.69.47,1.6,1.33.15.15,1.32,1.34,1.31,1.62,1.15,1.74,1,1.85.79,1.93.6,2,.39,2,.19,2.07v2.09l-.22,2.07-.42,2-.58,1.86,0,.13-.8,1.93-1,1.83-1.17,1.73-1.33,1.6L346,551.73,344.4,553l-1.74,1.15-1.84,1-1.94.79-2,.59-2,.4-2.08.19h-2.09l-.51-.06-1.56-.16-2.05-.42-2-.62-1.92-.81-1.84-1-1.73-1.17-1.6-1.33L316,550.07l-1.31-1.62-.08-.11-1.07-1.63-1-1.85-.79-1.93-.59-2-.4-2-.19-2.07v-2.09l.22-2.08.42-2,.62-2,.81-1.93.89-1.65.1-.18,1.17-1.73,1.34-1.6,1.48-1.47,1.62-1.31h0l.1-.07-.2-.11-.47-.25-.29-.16-1.38-.93-.72-.6-.56-.47L314.58,515l-1.05-1.3-.21-.32-.71-1.07-.78-1.47-.63-1.55-.47-1.6-.32-1.64-.15-1.66v-1.67l.07-.64.1-1,.34-1.63.49-1.6.65-1.54.8-1.46.93-1.39,1.07-1.28L315.9,491l1.3-1.06,1.4-.91.15-.08.1-.06-.18-.07-.73-.32-1-.54-.08-.05-1-.7-1-.8-.88-.9-.79-1-.69-1-.58-1.11-.48-1.16-.35-1.2-.24-1.23,0-.24-.1-1v-1.26l.13-1.24.25-1.23.38-1.19.48-1.16.6-1.1.7-1,.8-1,.89-.88,1-.79L317,466l.22-.12.88-.47,1.16-.47,1.21-.36,1.22-.23,1.25-.12h1.25l1.25.13,1.22.25,1.2.37,1,.43.13.06,1.1.59,1,.71,1,.79.88.9.79,1,.69,1,.58,1.11.47,1.16Z" style="fill: #fff"/>
  </g>
  <g style="opacity: 0.5">
    <path d="M213.4,514.75l-42-6.8,6.8-42,42,6.8-6.8,42m7.52-46.45-42-6.8,4.53-28,42,6.8-4.54,28m5.27-32.52-42-6.8,2.27-14,42,6.8Z" style="fill: #fff"/>
  </g>
  <g style="opacity: 0.5">
    <path d="M96.36,537.32l0,.07.47.61.52.69.5.7.48.71.47.72.45.72.44.73.25.45.15.28.39.73.37.73.16.34.15.33.15.32h0l.15.33.14.33.13.32.13.32.12.32.12.32.12.32.11.31v0l0,.15,0,.13.1.31.09.32.09.31.09.31.08.32.07.31.07.31.07.32,0,.18,0,.13.05.32.06.32.08.57,0,.09,0,.15,0,.24,0,.24,0,.24,0,.23,0,.23V554l0,.23v2.21l0,.19,0,.21h0l0,.22,0,.23,0,.22,0,.26,0,.26,0,.25,0,.26-.05.25-.06.25-.06.25-.06.25-.07.24,0,.07,0,.18-.08.24-.08.24-.08.24-.09.24-.09.24-.1.24-.1.23-.11.24-.11.24-.11.23-.12.23-.11.22v0l-.06.1-.07.13-.13.23,0,.08,0,.09-.06.09-.07.1-.07.11-.07.11-.08.11-.08.11-.08.12-.09.12-.09.12-.08.11h0l-.09.13,0,0-.06.08-.18.23-.09.11-.09.11-.08.11-.08.1-.08.09-.08.09-.07.08-.07.08-.14.14-.06.07-.09.09h0l-.1.11h0l-.09.09-.11.11-.11.1-.22.21-.11.1-.12.1-.11.1-.12.1,0,0-.09.08,0,0-.07,0-.12.1,0,0-.06,0-.12.09-.12.09-.11.08-.11.09-.22.15h0l-.11.07-.22.15-.14.09-.37.22-.37.22-.37.21-.38.19-.39.19-.39.18-.39.16-.39.16-.41.14-.4.13h0l-.39.12-.41.11-.41.1-.3.07-.12,0-.41.08-.43.07-.42.06-.42,0-.43,0-.43,0-.43,0H86.9l-.33,0-.32,0-.33,0-.32,0-.27,0h0l-.33-.06-.32-.06-.32-.06-.31-.07-.32-.08-.31-.09-.31-.09-.32-.1-.3-.1-.16-.06-.15,0-.3-.12-.3-.12-.3-.13-.3-.13-.29-.14-.29-.15,0,0-.24-.13-.29-.16-.09,0-.09-.05-.1-.07-.1-.06-.11-.08-.11-.07-.07,0,0,0-.12-.08-.12-.09-.12-.08-.12-.09-.13-.1-.11-.08-.12-.09-.12-.08-.23-.18,0,0-.07,0-.1-.09-.1-.07-.09-.08-.08-.07,0,0,0,0-.07-.06-.19-.19-.11-.09-.08-.09-.19-.19-.18-.18-.18-.19-.17-.2-.18-.19-.33-.39-.16-.2-.3-.41-.15-.21-.15-.21-.1-.15,0-.06-.14-.21-.13-.22-.13-.22-.13-.22-.12-.23-.12-.23-.12-.23-.12-.23-.11-.24-.1-.2-.07-.18,0,0-.08-.21h0l-.08-.19-.08-.2-.08-.21-.15-.4-.07-.21-.13-.41-.06-.21-.07-.21-.11-.43,0-.22,0-.11,0-.11,0-.23,0-.23,0-.23,0-.23,0-.24,0-.25-.08-.56-.05-.32,0-.33,0-.13,0-.19,0-.32h0l0-.32,0-.32,0-.32V552l0-.32,0-.34,0-.35,0-.35,0-.35,0-.36v0l0-.33,0-.37.06-.37.16-1,.19-1v0l.21-1,.25-1,.27-1,.3-1,.32-1,.34-.94.15-.4.21-.54.38-.91.4-.9.41-.88.43-.85.44-.82.46-.79.46-.76.47-.72.48-.68.49-.63.41-.5.08-.09.49-.54.49-.49.5-.44.47-.36,0,0,.08,0,.16-.11.09,0,.08-.05.08,0,0,0,0,0,.08,0,.08,0,.08,0,.15-.08h0l.07,0,.08,0,.08,0,.08,0,0,0,0,0,.08,0,.08,0,.08,0h0l.05,0h0l.08,0,.08,0,.08,0,.18,0,.17,0h0l.18,0,.17,0h.8l.21,0,.2,0,.21,0,.21,0,.21,0,.22.06.19.06h0l.22.07.22.08.22.09.23.1.23.1.23.11.19.1,0,0,.24.13.23.13.56.34.57.38.57.41.58.44.49.39.09.07.58.5.58.53.57.54.58.58.57.59.56.61.56.63.55.66.54.66M84.14,494.93l.24.23.15.14.4.39.39.41.38.42.12.14.26.3.38.44.37.45.36.47.35.47.34.48.34.49.32.49.08.14.23.35.29.5.28.5.27.51.25.5.11.23.06.12,0,.1.1.23.1.22.09.23.09.22.09.22.09.22.08.22.08.22.14.43.07.21.06.22v0l.06.18,0,.22.06.21,0,.21.1.44,0,.16v0l.08.44.06.39,0,.16,0,.17,0,.22V509l0,.16v.15l0,.31v1.19l0,.27v.18l0,.15,0,.16v.15l0,.18,0,.18,0,.17-.06.32v0l0,.17,0,.17,0,.17,0,.17-.05.16v.05l0,.12-.06.17,0,.16-.13.33-.06.16-.07.16-.08.16-.07.16-.08.17-.08.16-.08.16-.09.16-.09.16,0,0,0,.06,0,.07,0,.06,0,.06h0l0,.07-.06.08,0,.08-.07.09-.05.07-.06.08-.06.08-.06.09-.13.16-.06.08-.06.07h0l-.06.07-.06.07,0,0,0,0-.11.13,0,0,0,0-.06.07h0l-.07.08-.07.07-.07.07,0,0,0,0-.15.15-.07.07,0,0,0,0-.23.21-.08.06-.08.07-.08.06-.12.1,0,0-.07.06-.09.06-.08.06-.08.06-.07.06-.08.05,0,0,0,0-.24.16-.25.16-.26.15-.1.06-.15.08-.26.13-.27.13-.26.12-.27.11-.27.11-.28.1-.27.09-.28.08-.28.08-.19.05-.1,0-.28.07-.29,0-.29,0-.29,0-.29,0-.29,0H80.13l-.22,0-.21,0h0l-.22,0-.22,0-.22,0-.22,0-.22,0-.21,0-.22,0-.21-.06-.22-.07h0l-.18-.05-.21-.07-.21-.08-.21-.08-.21-.08-.2-.09-.2-.09,0,0-.17-.08-.21-.1-.19-.1h0l-.2-.11-.06,0h0l0,0h0l0,0h0l-.07,0-.07-.05-.08,0-.08-.05-.08-.06-.34-.24,0,0,0,0-.15-.11h0l-.08-.06-.07-.06-.08-.06-.07,0L74,518.4l-.06,0-.06-.05,0,0h0l0,0-.13-.12h0l-.12-.12-.13-.13-.12-.13-.13-.12-.12-.14h0l-.23-.26-.11-.14-.11-.14-.21-.28-.1-.14-.1-.14-.1-.15,0-.07,0-.07-.09-.15-.09-.15-.09-.15-.09-.16-.08-.15-.08-.16-.08-.16-.07-.17,0,0,0-.11-.06-.14-.12-.28,0-.13-.06-.15,0-.13,0-.13v0l-.05-.14,0-.14,0-.14,0-.14,0-.15v0l0-.12-.07-.3-.07-.31,0-.15,0-.1v-.06l0-.16-.06-.33-.06-.39,0-.22,0-.22,0-.22,0-.22,0-.22v-2l0-.24v-.23l0-.24,0-.24,0-.24,0-.24,0-.25v-.12l0-.13,0-.25.1-.65.13-.66.15-.67.17-.66h0l.19-.66.2-.66.22-.66.23-.65.25-.64.26-.63.27-.61.29-.6.29-.58.3-.57.31-.54.32-.51h0l.32-.5.33-.46.33-.44.34-.4.34-.37.06-.07.28-.27.33-.3.16-.11.18-.14.06,0,0,0h0l.05,0,0,0,.06,0,0,0,.06,0,.06,0,0,0h0l0,0,.06,0,0,0h0l.06,0,0,0,0,0h0l.06,0,0,0,.06,0,.1,0h0l.06,0h0l.09,0h.06l.12,0,.09,0h0l.13,0h.8l.14,0h0l.14,0,.15,0,.14,0,.15,0,.15,0,.15.06.16.05.15.06.15.07.16.07.16.08.16.08.09,0,.07,0,.16.1.38.23.39.26.39.28.4.3.39.32.4.34Z" style="fill: #fff"/>
  </g>
  <g style="opacity: 0.5">
    <path d="M89.58,337.13,92,336.8v0l.06-.29.12-.55.08-.41,1.27-6,.11-.52.07-.26.11-.23.15-.22.18-.19.21-.16.23-.13.25-.09.26-.05h.26l.26,0,13.14,2.75h0l.24.07.24.11.21.15.2.18.16.21.12.23.09.25,0,.26v.26l0,.26-.11.53-1.26,6-.09.42-.12.59-.06.26,2.1,1.28,2.19,1.66,2,1.86,1.82,2.05,1.61,2.22.14.23,1.25,2.14,1,2.18.14.31.9,2.59.64,2.67.38,2.72.1,2.74-.16,2.74-.43,2.71-.63,2.44-.06.21-1,2.58-1.2,2.46-1.43,2.34-1.66,2.19-1.86,2-2,1.82L110.06,388l-2.37,1.39-2.49,1.15-2.59.9-2.67.64-2.71.37-1.43.06-1.32.05-2.73-.16L89,392l-2.65-.7-2.57-.94-2.47-1.2-.25-.15L79,387.69l-.79-.59L76.81,386l-2-1.86L73,382.13l-1.62-2.22L70,377.54l-1.15-2.49-.9-2.59-.64-2.67-.38-2.72-.1-2.74.16-2.74,0-.22.39-2.49.7-2.65,1-2.58,1.2-2.47,1.43-2.34,1.65-2.18,1.87-2,2-1.82,2.22-1.61,2.36-1.39,2.5-1.15,2.59-.9,1.7-.4Z" style="fill: #fff"/>
  </g>
  <g style="opacity: 0.5">
    <path d="M72.79,219.79v1.61h10l2.21.18.4.1,1.7.42,2,.83L90.84,224l1.59,1.37L93.8,227l1.11,1.79.83,2,0,.06.5,2,.18,2.22v.75l0,.38,0,.37,0,.38-.06.37-.06.37-.06.28,0,.09-.09.37-.1.36-.07.21-.1.19-.12.17-.14.16-.16.14-.17.11-.19.09h0l-.17.06-.21,0-.22,0H93.06v10.4L93,252.73,92.6,255l-.58,2.2-.8,2.13-.06.12-1,1.92-1.24,2-1.46,1.87L85.82,267l-.43.37-1.46,1.3-2.11,1.57-1.6,1-1.57.91-1.51.78-1.3.61-.12.05-1.29.55-1.14.44-1,.34-.74.24-.49.14-.22.06-.64.17-.63-.17-.22-.06-.49-.14-.74-.24-1-.34-.93-.36-.21-.08-1.29-.55L63.37,273l-1.51-.79-1.57-.9-1.61-1-2.1-1.57L54.69,267,53,265.21l-1.46-1.87-1.24-2-1-1.92-.07-.12-.8-2.13-.57-2.2-.35-2.28-.11-2.34V240H46.17L46,240l-.21,0-.2-.07-.19-.09-.17-.11-.16-.14-.14-.15-.12-.18-.1-.19-.07-.21-.1-.35-.09-.37,0-.1-.06-.26-.06-.37L44.2,237l-.05-.37,0-.37,0-.37v-.75l.18-2.22.52-2.08v0l.84-2L46.75,227l.44-.51.26-.3.68-.79,1.62-1.38,1.81-1.11,2-.84,2.11-.52,2.22-.18h9.85v-1.61l0-.41.1-.39.15-.36.21-.33.25-.3.3-.25.33-.21.36-.15.39-.1.41,0,.41,0,.39.09h0l.35.15.33.21.3.25.25.29.2.34.16.36.1.39Z" style="fill: #fff"/>
  </g>
  <g style="opacity: 0.5">
    <path d="M78.11,31.94l1,.47.6.3,1.53.86,1.49.92,1.47,1,.59.42.83.6L87,37.53l1.35,1.08,1.3,1.1,1.25,1.1,1.2,1.1.3.29.84.8,1.09,1.07,1,1,1,1,.89.95.82.88.3.35,0,0,.29.43.24.43.19.45.15.46.09.46.06.46v.47l0,.46-.08.46-.11.45,0,.1-.12.34-.2.43-.23.41-.26.39L98,54.9l-.33.34-.37.32-.4.3-.43.25-.47.23-.49.19-.51.14-.55.11-17,2.49.17.69,4.67,18.93,3.47,14,.06.61v.58l-.06.54-.13.49-.18.46-.24.43-.28.39-.33.35-.38.33-.42.3-.45.28-.49.24-.51.23-.15.06-.4.14-.56.19-.6.16-.6.16-.63.14-.63.12-.64.12-.65.11-.65.1-.32,0-.33,0-1.29.19-.65.09-.66.09-.65.08-.65.07-.64.06-.64.05h-.26l-.37,0H69.7l-.6,0-.58,0L68,100.1l-.54-.1-.51-.14-.48-.16L66,99.49l-.43-.25L65.17,99l-.35-.34-.29-.37v0l-.27-.44L64,97.29l-.17-.55-.12-.61-.13-2.78L63,81.7l-1-20.19L45,64l-.55,0h-.54l-.52,0L42.89,64l-.49-.12-.46-.17-.45-.2-.42-.24-.4-.27-.36-.3L40,62.33,39.66,62l-.21-.29-.06-.09-.24-.4-.2-.41-.17-.44-.12-.45-.08-.46,0-.47v-.48L38.6,58l.11-.49.16-.49.2-.49.54-1.08.58-1.15.24-.46.4-.77.68-1.28.74-1.33L43,49.09l.84-1.4.88-1.42.93-1.42,1-1.42,1-1.41,1.08-1.38,1.12-1.35L51.06,38l1.21-1.26.49-.46.77-.73,1.31-1.11,1.35-1,1.39-.94L59,31.61l1.48-.71,0,0L62,30.3l1.57-.46,1.61-.32,1.63-.15h1.64l1.63.13,1.62.26,1.62.39,1.61.5,1.59.6Z" style="fill: #fff"/>
  </g>
  <g style="opacity: 0.5">
    <path d="M223.75,59.37l-.15-.66v0l-.09-.69,0-.7,0-.65v0l.12-.69.19-.66.25-.65.31-.63.37-.58.43-.55.48-.51.53-.45.57-.4.6-.34.64-.28.38-.13.28-.09.68-.16.69-.08.69,0,.7,0,.68.12.67.19.65.25.62.31.37.23.22.14.55.43.5.48.45.53.41.56.34.61.28.64.22.66.15.68v0l.08.67,0,.69,0,.7-.12.68-.18.67-.25.65-.32.62-.37.59-.16.2-.27.35-.48.5-.52.45-.57.4-.61.35-.63.28-.66.22-.68.15-.69.08h-.7l-.69,0-.69-.12-.66-.18-.65-.25-.63-.32-.58-.37-.55-.43-.51-.48-.45-.52-.4-.57-.34-.61,0,0L224,60l-.22-.66m2.93,34.27-1.09-.85-1-1-.91-1.06-.8-1.13-.69-1.21-.56-1.28-.44-1.32-.3-1.35-.17-1.38v-.32l0-1.07.11-1.39L221,79l.37-1.34.51-1.3.62-1.24.74-1.18.86-1.09,1-1,1-.83.1-.08,1.14-.8,1.21-.69,1.27-.56,1.32-.44,1.36-.3,1.38-.17,1.39,0,1.39.1.73.13.64.11,1.34.37,1.3.5,1.24.62,1.17.75,1.1.85,1,1,.91,1,.8,1.14.68,1.21.57,1.27.33,1,.1.29.31,1.36L249,81l0,1.39-.1,1.39-.24,1.37-.37,1.34-.5,1.3L247.17,89l-.74,1.18-.86,1.09-.95,1-1.06.91-1.14.8-.55.31-.66.38-1.27.56-1.32.43-1.35.31-1.38.17-1.39,0-1.39-.1-1.37-.24-1.34-.37-.12,0L229.1,95l-1.24-.62-1.18-.75m-4.14,36.52-.23-.52-.62-1.39-.65-2-.46-2-.25-2.07-.05-2.08.15-2.09.36-2,.56-2,.74-2,.94-1.86,1.12-1.76,1.28-1.65,1.35-1.41.09-.1,1.58-1.36,1.71-1.2,1.81-1,1.91-.85,2-.65,2-.46,2.07-.26,2.08,0,.69,0,1.39.11,2.06.35,2,.56,2,.75.12.06,1.74.88,1.76,1.12,1.65,1.28,1.51,1.44,1.36,1.58,1.2,1.7,1,1.82.85,1.91.65,2,.46,2,.25,2.07,0,2.09-.11,1.52,0,.56-.36,2-.55,2-.75,2-.94,1.87-1.12,1.76-1.28,1.64L256.19,136l-1.58,1.37-1.71,1.2-1.81,1-1.28.56-.63.28-2,.66-2,.45-2.07.26-2.09,0-2.08-.15-2.06-.36-2-.56-2-.75-1.86-.93L229.29,138l-1.65-1.28-1.51-1.44-.92-1.07-.44-.51-1.2-1.71Z" style="fill: #fff"/>
  </g>
  <path d="M437.64,513.62v0h0v0l0,.1,0,.07,0,.07v.45l0,.08,0,.07-.58,1.58-1.18,3.16-.58,1.58-.22.57,0,.08,0,.07,0,.06,0,.07-.05.06-.05.05,0,.06-.06,0-.05,0h0l0,0h0l-.06,0-.07,0-.06,0-.07,0h-.52l-.15,0-.08,0-2.83-1-6.27-2.32-.05,0h0l-.14-.08-.06,0-.06,0,0,0,0,0-.05-.06-.05-.05,0,0h0l0-.06,0-.07,0-.06,0-.07,0-.05,0-.1v-.59l.25-.65.58-1.58,1.17-3.16.59-1.58,0-.07,0-.07,0-.07,0-.06.05-.06,0-.06.06-.05.05-.05.06,0,.06,0,.06,0,.07,0h.07l.07,0,.07,0h.07l.08,0h.3l.15,0h0l.05,0,6.27,2.33,2.83,1.05.08,0,.13.07.07.05,0,0,0,0,.06.05.06,0,0,.06,0,.06,0,.06,0,.07m31.75-42.35v0l.34,1.17.26,1.22.18,1.25.07,1.28v1.31l-.09.92,0,.42-.22,1.34v0l-.09.4-.23,1-.62,1.94-.79,1.78-.94,1.64-1.07,1.5-1.2,1.39-.77.75-.53.52-1.39,1.17-1.46,1.08-1.52,1-1.56.93-.05,0-1.54.85-1.6.82-.48.23-.94.47-.1,0-.07,0-1.57.74-.52.25-1,.48-.48.24-1,.48-1.42.72-.28.17-1,.57-.26.16-1,.6-1.11.78-1,.84-.83.88-.68.94-.49,1L439,510l-.29.79-.06.15,0,.09,0,0,0,0,0,0,0,0,0,0,0,0,0,0h0l0,0,0,0-.05,0h-.05l-.1,0h-.31l-.05,0h-.06l-2.9-1.08-6.32-2.35-.34-.12-.09-.05-.07,0,0,0,0,0,0,0,0,0,0,0-.06-.08h0l0,0,0-.05h0v0l0,0v-.38l.06-.16.3-.79,1.25-3.38.29-1.09.1-1.16-.06-1.22-.17-1,0-.25-.15-.61-.17-.69v0l-.44-1.37-.41-1.1-.12-.33,0-.08-.56-1.39-.22-.5-.22-.53L427,491l-.12-.28,0-.09-.65-1.47-.7-1.59-.7-1.63-.49-1.22-.19-.45v0l-.06-.16-.28-.75-.26-.71,0-.06-.58-1.71-.49-1.75-.41-1.78-.29-1.79-.06-.74-.09-1.08v-1.82l.17-1.85.35-1.85.57-1.87.8-1.86.47-.9.2-.37.72-1.18.24-.32.54-.76.84-1,.9-.92.94-.83,1-.76,1-.67.32-.17.13-.06.64-.35,0,0,1.1-.49,1.18-.43,1.21-.34,1.26-.27,1.29-.19,1.32-.11,1.36,0,1,0h.36l1.42.11,1.44.18.62.11.85.15,1.49.33,1.51.4,1.53.47,1.54.54h0l2.4.92.19.07,1.47.64,1.41.69,1.35.72,1.28.77,1.21.8,1.15.84,1.07.88.46.41.55.5.92.95.43.5.43.49.77,1,.7,1.05.61,1.09.53,1.12h0l.26.68Z" style="fill: #fff;opacity: 0.5"/>
  <g style="opacity: 0.5">
    <path d="M545.56,479.15l0,.17v.28l0,.09,0,.19-.07.2-.09.2-.1.2-.11.21-.13.2-.13.19-.13.19-.14.19-.13.17-.14.16-.12.15-.12.13-8.24,9h0l-.05.06,0,0,.69.34.67.38.65.41.63.45.61.48.58.52.56.54.54.58.51.6.49.63.46.66.42.69.13.22.27.48.37.73.34.76.3.77.27.79.23.82.2.81h0l.16.85.13.86.08.87.05.89v.9l-.22,13.33,0,.89-.07.89-.12.87-.15.85-.19.84-.23.82L544,526l-.15.46-.3.78-.33.76-.36.74-.39.72-.28.47-.14.23-.45.67-.48.64-.51.61-.53.59-.56.56-.58.52-.6.5-.62.46-.65.42-.66.39-.68.36-.7.32,0,0,1.07,1.25,5.82,6.79,1.1,1.28.12.14.12.15.13.17.13.18.08.12,0,.06.13.2.12.2.12.2.1.21.1.2.08.21.06.19h0l0,.2,0,.18v.18l0,.17,0,.15-.09.14-.12.13-.15.1-.2.08-.23.06-.24,0h-.36L530.21,549l-1.8,0h0l-14.62-.25h-.06l-.26,0h-.06l-.21,0-.24-.07-.16-.07,0,0-.15-.1-.11-.13-.08-.14,0-.16,0-.17v-.18l0-.18.05-.2.08-.19.08-.21.1-.2.12-.2,0,0,.1-.17.13-.2.14-.19.13-.18.14-.18.13-.16.13-.15.12-.13,1.95-2.12,3-3.22,2.29-2.5,1.05-1.15.06-.06,0,0-.69-.34-.67-.38-.65-.41-.63-.45-.61-.48-.09-.07-.5-.44-.56-.55-.54-.57-.51-.61-.48-.63-.46-.66-.43-.68L515,529l-.36-.73-.34-.75-.3-.78-.27-.79-.14-.47-.1-.34-.2-.83-.16-.85-.12-.85-.09-.88,0-.88V520l.23-13.33,0-.9.08-.88.11-.87.16-.86.19-.84h0l.23-.81.26-.8.29-.79.33-.76.36-.74.4-.72.42-.69.45-.67.48-.64.5-.62.53-.59.56-.55.58-.53.52-.42.08-.07.63-.46.64-.43.67-.39.68-.35.7-.32-.09-.11-7.93-9.25-.11-.13-.12-.16-.13-.16-.13-.18-.13-.19-.13-.19-.12-.2-.12-.21-.11-.21-.09-.2-.08-.21-.07-.2,0-.19v-.37l0-.17.06-.15.08-.14.12-.12.16-.11.19-.08.23-.06.28,0H515l14.53.25h0l1.89,0,12.73.22.32,0,.28,0,.23.07.19.09.15.11.12.12.08.15Z" style="fill: #fff"/>
  </g>
  <g style="opacity: 0.5">
    <path d="M439.88,381.89l-.23-.52L439,380l-.66-2-.45-2-.26-2.07-.05-2.08.16-2.08.35-2.06.56-2,.75-2,.94-1.86,1.11-1.76,1.29-1.65,1.34-1.41.09-.1,1.59-1.36,1.7-1.2,1.82-1,1.9-.85,2-.65,2-.46,2.07-.26,2.09-.05.69.05,1.39.11,2,.35,2,.56,2,.75.12.06,1.74.88,1.77,1.12,1.64,1.28,1.51,1.44,1.36,1.58,1.21,1.7,1,1.82.85,1.91.66,2,.45,2,.26,2.07.05,2.09-.11,1.52-.05.56-.35,2.05-.56,2-.75,1.95-.94,1.87-1.11,1.76L475,386.21l-1.43,1.51-1.59,1.37-1.7,1.2-1.82,1-1.27.56-.63.28-2,.66-2,.45-2.07.26-2.09.05-2.08-.15-2.05-.36-2-.56-1.95-.75-1.86-.93-1.77-1.12L445,388.43,443.47,387l-.92-1.07-.44-.51-1.21-1.71Z" style="fill: #fff"/>
  </g>
  <g style="opacity: 0.5">
    <path d="M559.74,334.1l.57,1.3.1.24.58,1.56.49,1.56.4,1.56.29,1.55.2,1.54.08,1.5,0,1.47-.13,1.43-.11.66-.13.63-.15.59-.18.57-.2.53-.22.49-.09.17-.16.3-.26.43-.29.41-.31.38-.32.35-.35.32-.36.3-.39.27-.4.25-.42.22-.44.2-.46.18-.47.16h0l-.48.13-.5.12-.52.1-.53.08-.42,0-.13,0,.1,1.62,0,1.1v.36l-.15,1.32-.26,1.18-.37,1-.47.92-.56.81-.65.69-.72.59-.79.49h0l-.86.4-.93.31-1,.24-.32,0-.71.12-1.06.1-1.09.05H543l-1.15-.05-1.15-.08-1.16-.11-1.16-.12-1.15-.15-1.14-.15-2.23-.31-1.14-.16-1.15-.18-.36-.06-.79-.13-1.15-.21-1.13-.23-1.11-.27-1.08-.3-1-.35-1-.38-.94-.44-.88-.5-.8-.55-.72-.62h0l-.63-.69-.54-.76-.43-.84-.32-.93-.2-1-.07-1.11.07-1.21.21-1.31.37-1.42.46-1.31,0-.1,0-.06,0,0v0l-.51-.21-.49-.22-.47-.24-.45-.24-.17-.1-.27-.17-.41-.28-.39-.29-.36-.31-.35-.33-.32-.35-.29-.37-.27-.38-.25-.41-.22-.42-.19-.45-.17-.47-.14-.49-.07-.33,0-.19-.08-.53,0-.57,0-.59v-.61l0-.64.07-.67.26-1.41.38-1.42.41-1.19.08-.23.6-1.43.71-1.41.8-1.39.9-1.38,1-1.33.17-.21.9-1.1,1.13-1.25,1.21-1.2,1.27-1.15,1.33-1.07,1.38-1,1.42-.92,1.47-.82,1.5-.74,1.52-.63,1.55-.52,1.57-.4,1.57-.27.91-.09.67-.06H540l1.57.14,1.56.29,1.52.43,1.48.57,1.44.7,1.4.81,1.35.92,1.3,1,1.23,1.1h0l1.19,1.19,1.12,1.28,1,1.33,1,1.4.91,1.44.84,1.48Z" style="fill: #fff"/>
  </g>
  <g style="opacity: 0.5">
    <path d="M563.46,223.94l-42-6.8,6.8-42,42,6.8-6.8,42" style="fill: #fff"/>
  </g>
</svg>
