<svg id="Layer_2" data-name="Layer 2" xmlns="http://www.w3.org/2000/svg" viewBox="0 0 600 600">
  <g style="opacity: 0.5">
    <path d="M115.8,390.41a1.75,1.75,0,0,1-.88-2.61,8.8,8.8,0,0,0,1.44-4.84V382a8.88,8.88,0,0,0-7.7-8.81c-.13,0-1.26-.08-1.26-.08-5.54-.35-5.62-4.17-5.62-4.17h0c-1-12-9.43-14.91-9.43-14.91S92.2,362,86.6,367.37,74,373,70.06,373.39c-5.4.51-8.51,3.92-8.51,8.64V383A8.82,8.82,0,0,0,63,387.8a1.75,1.75,0,0,1-.88,2.61,10.85,10.85,0,0,0-7.39,10.28h0a10.84,10.84,0,0,0,10.85,10.84h46.77a10.84,10.84,0,0,0,10.85-10.84h0A10.85,10.85,0,0,0,115.8,390.41Z" style="fill: #fff"/>
  </g>
  <g style="opacity: 0.5">
    <path d="M321,253.22a1.74,1.74,0,0,1-1.83,2.05,8.81,8.81,0,0,0-4.93,1.14l-.81.46a8.89,8.89,0,0,0-3.85,11c0,.14.56,1.14.56,1.14,2.43,5-.86,6.95-.86,6.95h0c-9.95,6.75-8.31,15.56-8.31,15.56s7-3.81,14.42-1.58,11.15,8.18,13.4,11.4c3.11,4.45,7.62,5.46,11.71,3.14l.81-.46a8.92,8.92,0,0,0,3.51-3.65,1.73,1.73,0,0,1,2.69-.52,10.85,10.85,0,0,0,12.59,1.34h0a10.84,10.84,0,0,0,4.07-14.79L341,245.79a10.84,10.84,0,0,0-14.78-4.07h0A10.83,10.83,0,0,0,321,253.22Z" style="fill: #fff"/>
  </g>
  <g style="opacity: 0.5">
    <path d="M225,369.51a1.75,1.75,0,0,1,2.11-1.77,8.74,8.74,0,0,0,5-.44L233,367a8.87,8.87,0,0,0,5.36-10.39c0-.14-.38-1.2-.38-1.2-1.71-5.28,1.82-6.76,1.82-6.76h0c10.8-5.29,10.41-14.24,10.41-14.24s-7.45,2.79-14.5-.46-9.88-9.68-11.66-13.18c-2.45-4.84-6.77-6.48-11.15-4.75l-.87.34a8.79,8.79,0,0,0-4,3.12,1.75,1.75,0,0,1-2.75.13,10.85,10.85,0,0,0-12.27-3.1h0A10.85,10.85,0,0,0,187,330.53L204.1,374a10.85,10.85,0,0,0,14.07,6.11h0A10.82,10.82,0,0,0,225,369.51Z" style="fill: #fff"/>
  </g>
  <g style="opacity: 0.5">
    <path d="M466,479.3a1.74,1.74,0,0,1-2.58-.95,8.75,8.75,0,0,0-2.87-4.16l-.72-.59a8.88,8.88,0,0,0-11.68.47c-.12.09-.86.93-.86.93-3.75,4.09-6.78,1.76-6.78,1.76h0c-9.93-6.77-17.53-2-17.53-2s6.11,5.1,6.76,12.83S426.17,501,424,504.23c-3,4.52-2.29,9.09,1.38,12l.72.59a8.87,8.87,0,0,0,4.68,1.92,1.74,1.74,0,0,1,1.48,2.32,10.84,10.84,0,0,0,3.36,12.2h0a10.84,10.84,0,0,0,15.25-1.64l29.36-36.41A10.84,10.84,0,0,0,478.59,480h0A10.86,10.86,0,0,0,466,479.3Z" style="fill: #fff"/>
  </g>
  <g style="opacity: 0.5">
    <path d="M111.88,248.2a1.74,1.74,0,0,1,.92-2.59,8.82,8.82,0,0,0,4.14-2.92l.57-.72a8.89,8.89,0,0,0-.59-11.68c-.08-.11-.94-.85-.94-.85-4.13-3.7-1.82-6.76-1.82-6.76h0c6.67-10,1.83-17.55,1.83-17.55s-5,6.16-12.75,6.89c-7.87.75-13.41-3.39-16.71-5.52-4.55-2.95-9.12-2.19-12,1.51l-.58.72a8.85,8.85,0,0,0-1.87,4.7,1.75,1.75,0,0,1-2.31,1.5,10.84,10.84,0,0,0-12.16,3.5h0a10.84,10.84,0,0,0,1.79,15.23l36.71,29a10.86,10.86,0,0,0,15.24-1.8h0A10.85,10.85,0,0,0,111.88,248.2Z" style="fill: #fff"/>
  </g>
  <g style="opacity: 0.5">
    <path d="M511.34,340.88a1.75,1.75,0,0,1-2.71.48,8.82,8.82,0,0,0-4.57-2.16l-.92-.14a8.88,8.88,0,0,0-9.86,6.29c-.06.12-.28,1.23-.28,1.23-1.18,5.42-5,4.93-5,4.93h0c-12-.86-16.16,7.08-16.16,7.08s7.84,1.33,12.29,7.69,3.68,13.33,3.46,17.25c-.32,5.42,2.59,9,7.25,9.72l.92.14a8.84,8.84,0,0,0,5-.69,1.74,1.74,0,0,1,2.44,1.26,10.84,10.84,0,0,0,9,8.85h0a10.85,10.85,0,0,0,12.36-9.09l7.05-46.23a10.84,10.84,0,0,0-9.08-12.36h0A10.86,10.86,0,0,0,511.34,340.88Z" style="fill: #fff"/>
  </g>
  <g style="opacity: 0.5">
    <path d="M102.22,76.07a1.74,1.74,0,0,1,.31-2.73,8.82,8.82,0,0,0,3.35-3.78l.39-.85A8.88,8.88,0,0,0,103,57.48c-.11-.09-1.11-.6-1.11-.6-4.87-2.66-3.33-6.17-3.33-6.17h0c4.19-11.26-2.25-17.5-2.25-17.5s-3.49,7.15-10.84,9.64S71.66,42.63,68,41.31c-5.11-1.82-9.38,0-11.37,4.23l-.39.84a8.88,8.88,0,0,0-.75,5,1.74,1.74,0,0,1-1.89,2,10.84,10.84,0,0,0-11,6.19h0A10.83,10.83,0,0,0,47.77,74L90.16,93.75a10.83,10.83,0,0,0,14.41-5.24h0A10.85,10.85,0,0,0,102.22,76.07Z" style="fill: #fff"/>
  </g>
  <g style="opacity: 0.5">
    <path d="M207.83,136.25a1.74,1.74,0,0,1-2.53,1.08,8.8,8.8,0,0,0-4.94-1l-.93.07a8.88,8.88,0,0,0-8.16,8.38c0,.14,0,1.26,0,1.26.1,5.55-3.71,5.94-3.71,5.94h0c-11.87,1.91-14.1,10.6-14.1,10.6s7.94-.51,13.73,4.66,6.65,12.13,7.33,16c.93,5.35,4.59,8.17,9.29,7.8l.92-.08a8.8,8.8,0,0,0,4.72-1.82,1.74,1.74,0,0,1,2.67.67A10.83,10.83,0,0,0,223,196.3h0a10.85,10.85,0,0,0,9.94-11.68L229.17,138a10.85,10.85,0,0,0-11.69-9.94h0A10.86,10.86,0,0,0,207.83,136.25Z" style="fill: #fff"/>
  </g>
  <g style="opacity: 0.5">
    <path d="M345.87,87.09a1.75,1.75,0,0,1,1.78-2.1,8.78,8.78,0,0,0,4.89-1.28l.8-.48a8.87,8.87,0,0,0,3.54-11.14c0-.13-.58-1.12-.58-1.12-2.57-4.92.66-7,.66-7h0c9.76-7,7.87-15.79,7.87-15.79s-6.87,4-14.36,2-11.37-7.88-13.71-11c-3.23-4.36-7.76-5.25-11.8-2.82l-.79.49a8.79,8.79,0,0,0-3.4,3.74,1.74,1.74,0,0,1-2.69.59,10.85,10.85,0,0,0-12.62-1h0a10.84,10.84,0,0,0-3.66,14.89l24.21,40a10.85,10.85,0,0,0,14.89,3.66h0A10.84,10.84,0,0,0,345.87,87.09Z" style="fill: #fff"/>
  </g>
  <g style="opacity: 0.5">
    <path d="M563,231a1.75,1.75,0,0,1-2.71-.51,8.78,8.78,0,0,0-3.53-3.62l-.81-.46a8.9,8.9,0,0,0-11.44,2.43c-.09.1-.68,1.06-.68,1.06-3,4.66-6.39,2.86-6.39,2.86h0c-10.92-5-17.61,1-17.61,1s6.88,4,8.81,11.51-1.23,13.78-2.81,17.37c-2.2,5-.73,9.34,3.38,11.64l.81.46a8.88,8.88,0,0,0,4.93,1.11,1.74,1.74,0,0,1,1.85,2,10.83,10.83,0,0,0,5.36,11.46h0a10.85,10.85,0,0,0,14.76-4.17l22.83-40.82a10.84,10.84,0,0,0-4.17-14.76h0A10.83,10.83,0,0,0,563,231Z" style="fill: #fff"/>
  </g>
  <g style="opacity: 0.5">
    <path d="M408.59,206.18a1.75,1.75,0,0,1,2.61.88,8.91,8.91,0,0,0,3,4.09l.74.56a8.88,8.88,0,0,0,11.67-.79c.11-.08.83-.95.83-.95,3.63-4.19,6.73-1.94,6.73-1.94h0c10.11,6.51,17.58,1.54,17.58,1.54s-6.25-4.93-7.11-12.64,3.16-13.47,5.23-16.8c2.88-4.6,2-9.15-1.7-12l-.74-.56a8.89,8.89,0,0,0-4.73-1.79,1.75,1.75,0,0,1-1.54-2.28,10.85,10.85,0,0,0-3.7-12.1h0a10.83,10.83,0,0,0-15.2,2.05l-28.35,37.2a10.85,10.85,0,0,0,2.05,15.2h0A10.85,10.85,0,0,0,408.59,206.18Z" style="fill: #fff"/>
  </g>
  <g style="opacity: 0.5">
    <path d="M459.94,78.36a1.74,1.74,0,0,1,2.69-.55,8.8,8.8,0,0,0,4.64,2l.92.11a8.88,8.88,0,0,0,9.69-6.55c.05-.13.23-1.24.23-1.24,1-5.45,4.84-5.06,4.84-5.06h0c12,.53,16-7.52,16-7.52s-7.87-1.12-12.5-7.35-4-13.22-3.92-17.15c.16-5.42-2.84-8.93-7.52-9.52l-.92-.11a8.87,8.87,0,0,0-5,.83,1.74,1.74,0,0,1-2.47-1.2,10.86,10.86,0,0,0-9.29-8.6h0a10.86,10.86,0,0,0-12.11,9.42L439.4,72.31a10.86,10.86,0,0,0,9.42,12.11h0A10.86,10.86,0,0,0,459.94,78.36Z" style="fill: #fff"/>
  </g>
  <g style="opacity: 0.5">
    <path d="M376.46,392a1.74,1.74,0,0,1-2.23-1.6,8.89,8.89,0,0,0-1.67-4.78l-.54-.75a8.89,8.89,0,0,0-11.39-2.64c-.13.05-1.07.67-1.07.67-4.7,2.95-7-.1-7-.1h0c-7.78-9.16-16.37-6.58-16.37-6.58s4.54,6.53,3.12,14.16-6.94,12-9.89,14.55c-4.09,3.57-4.62,8.16-1.86,12l.54.76a8.89,8.89,0,0,0,4,3.09,1.74,1.74,0,0,1,.81,2.63,10.84,10.84,0,0,0,0,12.65h0a10.85,10.85,0,0,0,15.14,2.46L386,411.19a10.85,10.85,0,0,0,2.46-15.14h0A10.85,10.85,0,0,0,376.46,392Z" style="fill: #fff"/>
  </g>
  <g style="opacity: 0.5">
    <path d="M175.83,512.52a1.74,1.74,0,0,1,1.69-2.17,8.71,8.71,0,0,0,4.84-1.46l.78-.51a8.89,8.89,0,0,0,3.13-11.27c-.05-.13-.63-1.09-.63-1.09-2.75-4.82.4-7,.4-7h0c9.49-7.39,7.27-16.08,7.27-16.08s-6.72,4.26-14.28,2.52S167.38,468,164.92,465c-3.39-4.23-8-5-11.89-2.37l-.78.51A8.93,8.93,0,0,0,149,467a1.74,1.74,0,0,1-2.66.7,10.85,10.85,0,0,0-12.65-.53h0a10.85,10.85,0,0,0-3.1,15l25.69,39.08a10.86,10.86,0,0,0,15,3.11h0A10.86,10.86,0,0,0,175.83,512.52Z" style="fill: #fff"/>
  </g>
  <g style="opacity: 0.5">
    <path d="M537.59,549.31a1.74,1.74,0,0,1-.76,2.64,8.8,8.8,0,0,0-3.93,3.17l-.53.77a8.88,8.88,0,0,0,1.34,11.62c.1.1,1,.78,1,.78,4.36,3.43,2.25,6.63,2.25,6.63h0c-6,10.41-.69,17.63-.69,17.63s4.63-6.47,12.29-7.71,13.6,2.52,17,4.43c4.74,2.65,9.24,1.6,11.92-2.28l.52-.77a8.77,8.77,0,0,0,1.57-4.8,1.74,1.74,0,0,1,2.2-1.65,10.83,10.83,0,0,0,11.91-4.28h0a10.84,10.84,0,0,0-2.77-15.08l-38.52-26.54a10.84,10.84,0,0,0-15.08,2.78h0A10.85,10.85,0,0,0,537.59,549.31Z" style="fill: #fff"/>
  </g>
  <g style="opacity: 0.5">
    <path d="M267.2,582.6a1.74,1.74,0,0,1,2.45-1.25,8.8,8.8,0,0,0,5,.72l.92-.13a8.89,8.89,0,0,0,7.6-8.89c0-.14-.1-1.26-.1-1.26-.46-5.53,3.32-6.17,3.32-6.17h0c11.72-2.68,13.39-11.49,13.39-11.49s-7.89,1-14-3.75-7.42-11.68-8.35-15.49c-1.28-5.27-5.11-7.86-9.78-7.18l-.92.14a8.73,8.73,0,0,0-4.58,2.12,1.75,1.75,0,0,1-2.71-.49,10.85,10.85,0,0,0-11.24-5.82h0A10.84,10.84,0,0,0,239,536l6.76,46.28a10.85,10.85,0,0,0,12.3,9.16h0A10.86,10.86,0,0,0,267.2,582.6Z" style="fill: #fff"/>
  </g>
  <g style="opacity: 0.5">
    <path d="M62.32,525.82a1.74,1.74,0,0,1-2.65-.71,8.87,8.87,0,0,0-3.25-3.88l-.77-.52a8.88,8.88,0,0,0-11.59,1.55c-.11.09-.77,1-.77,1-3.35,4.42-6.59,2.37-6.59,2.37h0c-10.51-5.83-17.64-.39-17.64-.39s6.55,4.51,7.91,12.15S24.7,551,22.84,554.5c-2.57,4.78-1.44,9.27,2.48,11.87l.77.52a8.81,8.81,0,0,0,4.84,1.48,1.74,1.74,0,0,1,1.68,2.17,10.85,10.85,0,0,0,4.48,11.84h0a10.85,10.85,0,0,0,15-3l25.87-39a10.83,10.83,0,0,0-3-15h0A10.84,10.84,0,0,0,62.32,525.82Z" style="fill: #fff"/>
  </g>
  <g style="opacity: 0.5">
    <path d="M577.61,124a1.73,1.73,0,0,1-2.35-1.41,8.82,8.82,0,0,0-2-4.63l-.6-.71A8.88,8.88,0,0,0,561,115.49c-.12.06-1,.75-1,.75-4.45,3.32-7,.46-7,.46h0c-8.5-8.51-16.85-5.24-16.85-5.24s5,6.14,4.25,13.86-6,12.48-8.69,15.3c-3.79,3.88-3.94,8.5-.89,12.09l.6.71a8.84,8.84,0,0,0,4.24,2.76,1.74,1.74,0,0,1,1,2.55,10.86,10.86,0,0,0,1,12.62h0a10.85,10.85,0,0,0,15.29,1.23l35.62-30.31A10.85,10.85,0,0,0,589.9,127h0A10.86,10.86,0,0,0,577.61,124Z" style="fill: #fff"/>
  </g>
</svg>
